<?xml version="1.0" standalone="no"?>
<!DOCTYPE svg PUBLIC "-//W3C//DTD SVG 20010904//EN"
 "http://www.w3.org/TR/2001/REC-SVG-20010904/DTD/svg10.dtd">
<svg version="1.0" xmlns="http://www.w3.org/2000/svg"
 width="1024.000000pt" height="1024.000000pt" viewBox="0 0 1024.000000 1024.000000"
 preserveAspectRatio="xMidYMid meet">
<metadata>
Created by potrace 1.14, written by Peter Selinger 2001-2017
</metadata>
<g transform="translate(0.000000,1024.000000) scale(0.100000,-0.100000)"
fill="#000000" stroke="none">
<path d="M4890 9300 c-560 -28 -1045 -117 -1263 -233 -67 -35 -147 -102 -147
-123 0 -8 15 -45 34 -83 112 -222 200 -609 261 -1142 32 -288 32 -302 -1 -326
-23 -17 -26 -25 -25 -86 0 -79 12 -73 -164 -81 -190 -9 -393 -56 -502 -118
-200 -112 -226 -284 -68 -441 75 -76 208 -126 410 -157 39 -5 80 -12 92 -15
l21 -5 -25 -72 c-35 -99 -41 -215 -19 -347 l17 -102 -35 -52 c-40 -58 -69
-137 -80 -212 -5 -34 -25 -80 -62 -142 -52 -88 -255 -506 -296 -608 -51 -128
-170 -569 -189 -698 -11 -74 -17 -87 -57 -137 -58 -71 -150 -261 -202 -417
-49 -148 -90 -378 -90 -509 0 -82 -3 -100 -23 -132 -160 -254 -244 -430 -271
-564 -43 -211 -42 -448 3 -618 l20 -75 -35 -53 c-49 -74 -179 -208 -232 -239
-28 -16 -57 -47 -78 -80 -19 -29 -42 -53 -51 -53 -30 0 -103 -50 -109 -75 -9
-38 3 -73 33 -92 25 -17 81 -18 899 -16 542 1 894 6 930 12 265 46 2514 43
3409 -5 190 -10 412 -14 645 -12 195 2 439 -1 542 -6 208 -9 428 0 454 18 35
26 20 64 -55 140 -39 39 -71 77 -71 84 0 6 -53 54 -117 105 -65 52 -160 138
-212 191 l-93 97 7 42 c20 124 25 174 25 294 0 314 -51 487 -239 813 l-73 125
-14 119 c-28 239 -88 410 -261 754 -73 145 -133 273 -133 284 0 31 -96 396
-137 523 -41 127 -162 432 -206 520 -64 129 -273 504 -318 571 l-48 71 29 59
c66 140 66 294 -1 443 -16 35 -28 65 -27 66 2 1 62 12 135 24 309 51 477 140
553 295 101 205 5 365 -260 432 -65 17 -110 19 -350 18 l-275 -2 3 37 c3 29
-2 42 -22 62 -28 27 -28 4 0 319 36 408 144 898 253 1150 22 52 41 103 41 112
0 46 -96 112 -235 162 -207 74 -603 153 -880 175 -188 15 -574 21 -765 11z
m705 -65 c446 -38 795 -115 985 -216 63 -34 16 -20 -67 21 -45 21 -106 46
-135 54 -70 20 -292 54 -398 60 l-85 5 75 -9 c41 -5 104 -14 140 -20 140 -22
163 -30 84 -30 -35 0 -45 -3 -34 -10 8 -5 60 -10 115 -11 l100 -1 -180 -29
c-296 -47 -298 -48 -130 -45 86 2 135 0 115 -4 -23 -5 -5 -7 55 -5 68 2 78 1
40 -5 l-50 -7 60 -3 60 -3 -55 -7 -55 -7 80 -3 c64 -2 73 -4 45 -10 l-35 -7
40 -3 c29 -2 18 -5 -42 -12 -46 -6 -83 -13 -83 -18 0 -4 -36 -11 -80 -14 -44
-4 -78 -11 -76 -15 7 -10 127 -31 201 -34 33 -2 -16 -5 -110 -7 -144 -3 -158
-5 -90 -10 l80 -6 -105 -3 c-58 -2 -116 -6 -130 -10 -29 -8 329 -3 410 5 41 5
50 8 35 15 -15 6 -10 8 22 8 23 1 45 -4 49 -11 5 -8 0 -9 -14 -6 -12 4 -22 3
-22 -2 0 -12 -74 -22 -220 -30 l-135 -7 130 -2 c160 -3 212 -18 70 -20 -157
-2 -193 -15 -60 -22 l110 -5 -110 -3 -110 -4 100 -12 100 -12 -80 -3 c-63 -2
-74 -4 -50 -11 24 -7 20 -8 -22 -5 -28 2 -58 -1 -65 -5 -9 -6 -5 -9 12 -10 20
-1 18 -3 -10 -9 -23 -5 15 -8 105 -10 77 -1 163 -5 190 -10 29 -4 -46 -6 -180
-4 -132 1 -211 -1 -185 -5 l45 -8 -62 -1 c-35 -1 -63 -6 -63 -12 0 -5 -12 -11
-27 -11 -16 -1 -3 -5 27 -10 30 -4 75 -15 100 -23 l45 -14 -45 -2 c-25 0 -63
-5 -85 -9 -26 -6 3 -7 85 -5 l125 3 -94 -9 c-52 -5 -97 -12 -100 -16 -3 -3 23
-3 59 0 135 12 257 15 215 6 -22 -5 -69 -9 -105 -10 -36 -1 -85 -5 -110 -9
-28 -5 14 -7 115 -5 l160 3 -125 -9 c-137 -10 -214 -20 -208 -25 2 -2 67 0
145 4 78 5 157 5 175 1 26 -6 17 -8 -47 -11 -78 -2 -78 -2 -25 -8 l55 -6 -52
-8 c-29 -4 -55 -12 -58 -17 -3 -6 -23 -10 -43 -11 -20 -1 -48 -5 -62 -9 -22
-7 -20 -8 15 -10 l40 -3 -35 -7 -35 -7 30 -3 30 -3 -35 -6 c-26 -5 5 -11 115
-22 l150 -16 -102 -2 c-56 0 -105 -5 -108 -11 -3 -5 -39 -10 -78 -11 -40 0
-81 -4 -92 -9 -12 -6 42 -7 139 -5 170 6 206 -6 53 -16 l-92 -6 115 -3 115 -3
-75 -7 c-41 -4 -109 -9 -150 -11 -49 -2 -15 -5 95 -9 l170 -6 -164 -2 c-90 -1
-162 -5 -159 -8 4 -3 37 -9 75 -13 l68 -8 -65 -3 -65 -4 70 -6 70 -6 -75 -4
c-62 -2 -69 -4 -40 -10 34 -7 34 -7 -12 -9 -45 -1 -72 12 -46 22 7 3 -5 5 -27
5 -22 0 -62 -8 -90 -19 -27 -11 -39 -17 -25 -14 14 3 68 2 120 -2 86 -6 91 -8
50 -14 -25 -4 -74 -9 -110 -10 l-65 -2 55 -7 c30 -4 47 -7 38 -8 -9 -1 -19 -6
-22 -11 -3 -5 2 -8 11 -7 27 2 25 -18 -4 -37 l-28 -18 56 6 c72 8 339 8 347 1
3 -3 -21 -6 -54 -6 -75 0 -111 -9 -92 -22 9 -7 8 -8 -5 -4 -10 3 -53 6 -95 7
-57 1 -70 3 -52 10 41 14 -72 -1 -127 -17 l-48 -14 50 5 c28 2 61 7 75 11 14
3 20 2 13 -3 -6 -4 27 -7 75 -6 l87 2 -70 -13 -70 -14 90 4 90 3 -100 -14
c-191 -26 -305 -48 -305 -57 0 -5 8 -7 18 -5 88 25 332 58 407 56 45 -2 42 -3
-25 -10 -41 -5 -95 -13 -120 -18 l-45 -9 48 -1 c70 -2 57 -18 -20 -26 -194
-18 -204 -22 -59 -24 77 0 136 -4 132 -8 -4 -4 -57 -6 -119 -5 -62 1 -124 -1
-140 -6 -17 -4 24 -8 105 -9 73 -1 147 -6 163 -12 l30 -10 -40 1 c-61 1 -85
-1 -85 -9 0 -5 35 -7 77 -7 l78 2 -75 -9 c-41 -5 -109 -13 -150 -18 -57 -6
-29 -8 115 -5 201 3 192 1 -150 -20 -54 -4 -101 -9 -104 -12 -3 -2 58 -4 135
-4 76 1 157 -3 179 -7 33 -7 21 -9 -60 -10 -57 0 -126 -8 -160 -17 -33 -9 -44
-14 -25 -11 19 2 82 7 140 9 81 4 94 3 56 -4 -27 -5 -99 -11 -160 -14 -174 -9
-138 -18 49 -13 155 5 161 4 65 -4 -58 -6 -121 -13 -140 -17 l-35 -6 45 -5 45
-5 -55 -7 c-59 -7 -59 -7 95 1 52 3 185 -13 185 -22 0 -6 -10 -8 -22 -5 -13 3
-52 8 -88 11 -47 4 -57 3 -35 -3 17 -5 42 -13 57 -18 17 -5 -33 -7 -130 -7
-167 2 -277 -11 -233 -28 14 -5 57 -4 105 2 102 13 114 11 51 -6 l-50 -14 55
5 c30 3 107 7 170 10 l115 4 -112 -13 c-61 -8 -118 -18 -125 -23 -7 -4 -245
-8 -528 -8 -315 0 -612 -6 -763 -14 -150 -9 -251 -11 -255 -5 -4 5 -20 10 -37
11 -55 3 -66 7 -61 20 6 15 -36 18 -62 4 -9 -4 -39 -11 -67 -13 -49 -5 -49 -5
-12 5 37 10 51 27 22 27 -7 0 -40 -7 -71 -15 -83 -21 -79 -10 5 15 38 11 73
25 77 31 4 7 0 9 -12 5 -11 -3 -41 -10 -69 -15 -27 -5 -59 -13 -69 -17 -13 -5
-17 -4 -13 4 4 6 22 13 40 17 54 11 126 36 133 46 3 6 -6 7 -23 4 -18 -4 -9 3
27 23 30 16 55 36 55 43 0 8 4 20 8 27 12 18 -1 15 -39 -9 -19 -11 -34 -16
-34 -11 0 5 14 15 30 22 17 7 33 17 37 23 4 7 0 8 -13 2 -61 -25 -118 -44
-122 -41 -6 7 57 37 87 43 14 2 33 11 43 20 9 8 34 21 55 29 22 7 30 13 18 13
-11 1 -33 -6 -49 -14 -36 -19 -42 -19 -26 0 7 8 9 15 4 15 -5 0 -2 5 6 10 10
6 11 10 3 10 -7 0 -13 9 -13 20 0 26 -6 25 -45 -4 -59 -46 -185 -114 -185
-102 0 2 24 18 54 35 85 48 191 121 175 121 -8 0 -27 -9 -43 -19 -16 -11 -34
-17 -40 -15 -7 3 -48 -14 -92 -37 -43 -22 -72 -34 -64 -26 22 21 149 84 187
92 17 3 37 13 44 21 19 23 -79 -12 -198 -71 -29 -14 -53 -23 -53 -20 0 8 156
83 189 90 17 4 31 11 31 16 0 6 -5 7 -12 3 -8 -5 -9 -2 -5 9 8 22 8 22 -44 -7
-81 -45 -192 -96 -196 -92 -5 5 171 96 297 154 l25 12 -25 -6 c-29 -7 -123
-49 -224 -100 -38 -19 -71 -33 -73 -30 -5 5 124 75 155 82 12 4 25 10 28 15
11 18 -33 8 -94 -21 -35 -17 -67 -30 -70 -30 -12 1 123 69 138 70 8 0 24 8 35
16 19 14 17 15 -20 8 -22 -4 -58 -15 -80 -26 -26 -12 -33 -14 -21 -4 11 9 40
23 65 33 49 19 132 70 94 59 -12 -4 -62 -24 -112 -46 -136 -58 -101 -32 48 36
141 64 167 83 49 36 -77 -31 -125 -38 -106 -15 13 16 32 17 22 2 -4 -7 -3 -10
2 -8 149 63 193 83 189 87 -3 3 -15 0 -28 -6 -58 -28 -140 -62 -150 -62 -21 0
8 18 73 45 36 15 70 31 75 37 21 20 -102 -34 -185 -82 -51 -29 -100 -51 -100
-46 0 6 122 76 218 124 46 23 82 45 79 48 -3 3 -32 -8 -66 -25 -33 -17 -65
-31 -70 -31 -6 0 -29 -13 -53 -28 -46 -30 -118 -65 -118 -57 0 3 19 14 43 26
48 25 130 80 135 92 2 4 27 23 55 42 29 19 46 35 39 35 -16 0 -83 -42 -101
-64 -7 -9 -17 -16 -21 -16 -11 0 49 59 89 88 18 13 51 33 74 43 34 17 37 19
12 14 -31 -7 -114 -56 -142 -84 -14 -13 -57 -32 -128 -55 -11 -4 5 6 35 21 30
15 60 33 65 39 6 6 27 21 48 33 68 41 38 32 -46 -14 -46 -25 -90 -45 -98 -45
-8 0 5 9 28 21 41 20 74 49 57 49 -5 0 -22 -9 -39 -20 -16 -11 -37 -20 -45
-20 -8 0 3 10 25 21 22 12 49 28 60 35 16 12 17 14 3 14 -9 0 -19 -4 -22 -9
-8 -12 -146 -65 -152 -58 -3 3 26 17 63 31 38 14 86 40 107 58 34 27 36 33 20
38 -14 5 -8 11 30 30 73 37 66 43 -9 8 -92 -43 -92 -29 0 17 42 21 74 39 72
41 -2 2 -37 -11 -78 -30 -47 -22 -89 -34 -116 -34 l-42 1 102 54 c56 30 119
61 140 70 20 9 37 20 37 26 0 6 -4 6 -12 0 -23 -18 -77 -32 -83 -23 -4 6 -16
3 -29 -5 -20 -14 -131 -55 -145 -55 -3 0 31 18 75 39 45 21 84 44 88 50 10 16
1 14 -54 -14 -54 -27 -64 -30 -55 -15 9 15 -26 12 -55 -5 -18 -10 -20 -14 -8
-15 9 0 20 5 23 10 3 6 11 10 16 10 19 0 -1 -18 -31 -29 -18 -6 -28 -6 -25 -1
8 13 -1 13 -26 0 -10 -6 -19 -8 -19 -6 0 3 18 15 41 26 23 12 39 24 36 27 -3
2 -14 0 -25 -6 -30 -16 -40 -13 -18 4 20 15 20 15 0 15 -13 0 -5 9 26 30 25
16 38 30 30 31 -8 0 0 5 19 11 18 5 45 17 60 27 14 10 43 29 63 42 21 13 38
27 38 30 0 10 -33 8 -63 -3 -33 -13 -45 -5 -27 17 18 21 9 19 -60 -16 -34 -17
-64 -29 -66 -26 -3 3 37 26 88 52 100 51 116 61 80 52 -23 -6 -24 -5 -5 15 16
20 16 21 1 15 -10 -3 -17 -3 -17 1 7 47 -16 67 -41 37 -11 -13 -10 -15 6 -9
13 4 9 -3 -11 -21 -23 -21 -25 -24 -7 -15 26 13 38 8 45 -19 4 -15 -7 -24 -57
-45 -34 -14 -70 -28 -81 -30 -11 -2 -49 -16 -84 -30 -36 -14 -66 -24 -68 -23
-4 4 148 70 200 87 20 6 37 16 37 22 0 6 -6 8 -12 5 -51 -20 -53 -20 -28 1 14
12 20 21 13 22 -6 0 -15 -4 -18 -10 -3 -5 -12 -10 -18 -10 -7 1 -1 10 12 20
29 25 25 25 -33 0 -48 -22 -62 -36 -23 -24 26 8 22 2 -12 -16 -15 -8 -21 -8
-17 -1 13 20 -23 11 -45 -11 -12 -13 -19 -17 -15 -10 9 15 6 15 -39 -4 -20 -8
-42 -13 -48 -11 -7 2 6 9 28 17 54 17 248 111 242 117 -3 2 -46 -16 -96 -41
-50 -25 -96 -46 -103 -46 -7 0 32 23 87 51 108 56 110 57 104 63 -2 2 -44 -16
-92 -40 -48 -24 -91 -44 -95 -44 -4 0 45 29 108 65 110 62 133 86 43 45 -24
-10 -43 -17 -43 -15 0 9 57 34 125 56 39 12 64 24 58 26 -15 5 -95 -20 -172
-54 -30 -13 -56 -21 -58 -19 -2 2 21 15 51 29 53 25 71 50 44 60 -7 3 7 14 32
25 62 28 27 27 -65 -2 -41 -13 -72 -19 -68 -13 4 6 0 8 -11 4 -10 -4 -15 -3
-11 3 31 49 457 140 821 174 196 19 737 19 949 1z m810 -180 c-24 -8 -116 -12
-103 -4 7 5 36 8 63 8 28 0 46 -2 40 -4z m-2620 -25 c-3 -5 -12 -10 -18 -10
-7 0 -6 4 3 10 19 12 23 12 15 0z m2663 3 c-10 -2 -26 -2 -35 0 -10 3 -2 5 17
5 19 0 27 -2 18 -5z m-2568 -13 c-8 -5 -19 -10 -25 -10 -5 0 -3 5 5 10 8 5 20
10 25 10 6 0 3 -5 -5 -10z m2561 -9 c-46 -3 -115 -3 -155 0 -48 4 -21 6 84 6
119 0 135 -2 71 -6z m-2601 -6 c0 -2 -15 -12 -32 -20 l-33 -16 24 21 c22 19
41 26 41 15z m6 -31 c-37 -19 -70 -33 -73 -30 -6 6 107 65 127 65 8 0 -16 -15
-54 -35z m2597 -21 c-7 -2 -21 -2 -30 0 -10 3 -4 5 12 5 17 0 24 -2 18 -5z
m-2553 -17 c0 -2 -7 -7 -16 -10 -8 -3 -12 -2 -9 4 6 10 25 14 25 6z m2557 -42
c-3 -3 -12 -4 -19 -1 -8 3 -5 6 6 6 11 1 17 -2 13 -5z m-2697 -48 c0 -2 -7 -7
-16 -10 -8 -3 -12 -2 -9 4 6 10 25 14 25 6z m270 -96 c0 -6 -12 -15 -27 -21
-16 -6 -69 -31 -119 -55 -95 -46 -135 -58 -74 -23 31 18 32 19 8 15 -14 -3
-34 -9 -45 -13 -10 -3 -16 -4 -13 0 9 10 110 45 104 36 -9 -16 9 -9 81 30 78
43 85 45 85 31z m90 5 c0 -9 -134 -69 -148 -67 -7 2 -26 -6 -42 -18 -35 -25
-140 -74 -146 -68 -7 8 298 153 329 157 4 1 7 -1 7 -4z m-210 -10 c0 -7 -71
-41 -100 -49 -14 -3 2 7 35 23 70 34 65 32 65 26z m2470 -25 c13 -9 13 -10 0
-10 -8 0 -22 5 -30 10 -13 9 -13 10 0 10 8 0 22 -5 30 -10z m-2451 -84 c-2 -2
-15 -9 -29 -15 -24 -11 -24 -11 -6 3 16 13 49 24 35 12z m2381 -38 c-28 -11
-341 -11 -352 0 -3 4 80 8 185 9 135 1 185 -2 167 -9z m-193 -34 c-3 -3 -12
-4 -19 -1 -8 3 -5 6 6 6 11 1 17 -2 13 -5z m-2017 -28 c-8 -8 -53 -31 -100
-51 -103 -44 -95 -31 15 24 84 43 109 50 85 27z m-205 -96 c-3 -5 -14 -10 -23
-9 -14 0 -13 2 3 9 27 11 27 11 20 0z m-75 -20 c0 -5 -5 -10 -11 -10 -5 0 -7
5 -4 10 3 6 8 10 11 10 2 0 4 -4 4 -10z m140 -14 c0 -2 -7 -7 -16 -10 -8 -3
-12 -2 -9 4 6 10 25 14 25 6z m43 -21 c-12 -8 -37 -18 -55 -21 l-33 -5 35 20
c19 11 44 20 55 21 18 0 18 -1 -2 -15z m2300 8 c-35 -2 -91 -2 -125 0 -35 2
-7 3 62 3 69 0 97 -1 63 -3z m-2287 -22 c-6 -10 -91 -51 -103 -51 -7 1 95 58
105 60 2 0 1 -4 -2 -9z m2212 2 c-10 -2 -26 -2 -35 0 -10 3 -2 5 17 5 19 0 27
-2 18 -5z m-2318 -123 c-20 -13 -33 -13 -25 0 3 6 14 10 23 10 15 0 15 -2 2
-10z m51 -76 c-29 -14 -58 -23 -64 -21 -6 2 14 13 44 24 74 28 86 27 20 -3z
m59 1 c0 -8 -118 -65 -132 -64 -7 0 19 15 57 34 82 39 75 36 75 30z m2195 -45
l-60 -7 55 -2 c30 -1 49 -5 42 -8 -8 -3 -48 -2 -90 3 -62 6 -71 9 -47 15 17 3
59 6 95 6 l65 0 -60 -7z m-145 -36 c-60 -8 -130 -8 -130 -1 0 4 35 6 78 6 42
-1 66 -3 52 -5z m35 -35 c-55 -4 -122 -10 -149 -13 -27 -3 -46 -2 -42 2 11 10
107 19 206 19 l85 0 -100 -8z m-2179 -44 c-11 -8 -25 -15 -30 -15 -6 0 -2 7 8
15 11 8 25 15 30 15 6 0 2 -7 -8 -15z m2367 -22 c-13 -2 -33 -2 -45 0 -13 2
-3 4 22 4 25 0 35 -2 23 -4z m-2373 -13 c-20 -13 -33 -13 -25 0 3 6 14 10 23
10 15 0 15 -2 2 -10z m20 -24 c0 -2 -7 -7 -16 -10 -8 -3 -12 -2 -9 4 6 10 25
14 25 6z m2113 -73 c-7 -2 -21 -2 -30 0 -10 3 -4 5 12 5 17 0 24 -2 18 -5z
m-1928 -32 c-14 -13 -123 -71 -132 -71 -10 0 119 78 132 79 6 1 6 -2 0 -8z
m55 -33 l-25 -21 25 8 25 7 -23 -23 c-16 -17 -25 -21 -30 -12 -6 9 -30 1 -87
-28 -44 -22 -71 -33 -60 -24 11 9 38 26 60 37 22 11 55 34 73 49 18 16 40 29
50 29 14 -1 12 -5 -8 -22z m20 -43 c0 -2 -10 -10 -22 -16 -21 -11 -22 -11 -9
4 13 16 31 23 31 12z m-64 -20 c-11 -8 -23 -15 -27 -15 -3 0 -33 -16 -65 -35
-32 -19 -63 -35 -68 -35 -6 0 27 23 74 50 81 47 128 66 86 35z m-2 -55 c-12
-12 -146 -61 -152 -56 -2 2 18 12 45 21 26 9 62 23 78 30 37 17 42 18 29 5z
m66 -15 c-9 -8 -31 -17 -50 -20 l-35 -6 40 20 c49 24 64 26 45 6z m1973 8 c-7
-2 -19 -2 -25 0 -7 3 -2 5 12 5 14 0 19 -2 13 -5z m-2073 -42 c-8 -5 -28 -11
-45 -14 l-30 -6 30 14 c34 16 72 21 45 6z m2030 -12 c0 -7 -26 -8 -82 -3 -46
3 -85 8 -87 10 -2 2 35 4 82 4 55 0 87 -4 87 -11z m-2040 -29 c-8 -5 -19 -10
-25 -10 -5 0 -3 5 5 10 8 5 20 10 25 10 6 0 3 -5 -5 -10z m1898 -37 c-10 -2
-26 -2 -35 0 -10 3 -2 5 17 5 19 0 27 -2 18 -5z m-241 -9 c-3 -3 -12 -4 -19
-1 -8 3 -5 6 6 6 11 1 17 -2 13 -5z m248 -54 c3 -5 36 -11 73 -11 37 -1 54 -4
37 -6 -48 -8 -225 9 -195 18 37 11 78 10 85 -1z m-1725 -20 c-30 -10 -163 -12
-137 -2 9 4 50 8 90 9 50 1 64 -1 47 -7z m1354 -20 c24 -9 26 -15 28 -72 l1
-63 6 50 c12 93 26 11 23 -130 -2 -140 -8 -177 -23 -154 -7 11 -9 10 -9 -3 0
-43 -28 -46 -346 -39 -233 5 -305 9 -317 20 -15 11 -17 37 -17 175 0 182 3
200 33 214 29 14 586 16 621 2z m402 -25 l35 -15 -3 -174 c-2 -128 -7 -179
-16 -188 -11 -11 -11 -8 -3 15 12 32 15 337 4 337 -5 0 -10 -73 -11 -163 -2
-95 -9 -172 -15 -187 -16 -33 -73 -39 -107 -12 -24 20 -24 21 -22 202 1 100 4
186 8 191 8 14 91 11 130 -6z m1154 -257 c84 -25 200 -113 200 -153 0 -30 -79
-82 -167 -108 -104 -32 -196 -47 -523 -87 -135 -16 -312 -39 -395 -50 -236
-32 -388 -48 -700 -75 -450 -38 -597 -45 -1070 -52 -410 -5 -453 -4 -625 16
-248 29 -523 74 -645 106 -147 38 -265 96 -265 131 0 21 102 119 147 143 53
26 63 26 63 -1 0 -39 31 -58 169 -102 250 -80 402 -95 1036 -103 459 -5 1136
8 1400 27 291 21 435 30 610 37 99 4 164 10 145 13 -35 6 -35 6 15 14 96 14
171 36 305 89 146 57 210 103 210 152 0 27 6 28 90 3z m-3916 -132 c26 -29 47
-39 141 -64 201 -55 351 -81 467 -83 35 -1 74 -5 88 -10 18 -6 9 -7 -30 -4
-30 2 -93 7 -140 11 -116 8 -213 26 -380 70 -145 38 -190 61 -190 95 0 27 8
24 44 -15z m2806 -96 c-79 -15 -392 -30 -870 -42 -367 -9 -515 -9 -705 1 -352
19 -373 28 -70 31 143 2 481 6 750 9 712 10 948 10 895 1z m-1962 -67 c-10 -2
-28 -2 -40 0 -13 2 -5 4 17 4 22 1 32 -1 23 -4z m2249 -303 c85 -38 127 -75
160 -141 32 -62 54 -145 52 -198 0 -24 -1 -24 -10 -6 -6 14 -7 1 -4 -40 l5
-60 -31 90 c-17 50 -31 109 -31 133 0 51 -51 156 -90 185 -14 11 -50 28 -79
38 -30 10 -45 18 -34 18 11 1 39 -8 62 -19z m-202 0 l20 -9 -20 0 c-11 0 -27
4 -35 9 -13 9 -13 10 0 9 8 0 24 -4 35 -9z m300 0 c17 -7 16 -9 -10 -9 -16 0
-37 4 -45 9 -12 8 -10 10 10 9 14 0 34 -4 45 -9z m-166 -21 c30 -11 68 -27 85
-36 30 -16 31 -16 16 3 -14 18 -14 18 3 5 10 -8 23 -24 29 -35 10 -19 10 -20
-7 -6 -17 14 -17 13 1 -20 10 -19 19 -47 20 -63 1 -24 0 -26 -15 -15 -9 7 -4
-1 10 -17 55 -64 95 -159 124 -298 8 -37 32 -105 54 -150 35 -74 72 -204 70
-246 0 -9 -13 25 -28 74 -25 83 -65 175 -76 175 -2 0 7 -24 19 -52 43 -97 79
-255 91 -398 8 -90 -7 -85 -24 9 -14 70 -50 195 -56 189 -2 -2 7 -46 20 -98
45 -187 59 -480 30 -618 -25 -122 -90 -257 -158 -329 -43 -45 -57 -43 -57 10
0 24 -5 48 -12 55 -8 8 6 29 60 86 45 47 75 89 82 113 6 21 13 119 15 218 3
130 1 161 -5 110 -4 -38 -15 -130 -24 -204 -16 -140 -35 -190 -86 -236 -20
-17 -19 -14 5 23 21 32 29 59 32 100 l4 57 -17 -40 c-18 -43 -74 -124 -100
-145 -13 -12 -14 -10 -8 16 4 16 13 38 20 49 7 11 16 40 20 65 l6 45 -32 -60
c-34 -63 -57 -95 -44 -61 5 13 4 17 -4 12 -17 -11 -15 -2 19 76 17 38 29 71
27 73 -2 2 -17 -25 -33 -61 -27 -60 -45 -81 -45 -51 1 6 9 37 20 67 11 31 19
79 19 110 l-1 55 -8 -40 c-11 -53 -38 -124 -40 -105 -9 91 -41 233 -65 286
-27 62 -101 135 -212 211 -62 42 -84 63 -88 84 -4 16 -11 31 -16 34 -4 3 -15
20 -24 38 -8 18 -27 46 -41 62 l-26 30 22 -32 c73 -111 111 -265 75 -308 -13
-16 -16 -17 -11 -3 7 23 -19 119 -49 186 -25 55 -75 113 -199 231 -120 116
-216 174 -353 213 -103 30 -323 32 -423 5 -75 -21 -233 -86 -238 -99 -2 -5
-43 -35 -90 -67 -130 -87 -178 -143 -244 -285 -32 -68 -38 -76 -38 -50 0 41
30 130 63 186 30 51 92 116 154 160 58 42 47 48 -13 8 -69 -48 -160 -145 -190
-204 l-26 -51 6 39 c8 61 63 141 171 250 145 146 240 196 443 231 108 19 287
19 377 0 122 -26 249 -95 359 -196 31 -28 59 -49 62 -46 3 3 -31 36 -76 75
-178 154 -378 217 -617 193 -216 -22 -323 -59 -466 -162 -78 -55 -197 -173
-197 -194 0 -17 -107 -148 -128 -156 -13 -5 -47 -9 -75 -10 -42 0 -48 -2 -29
-9 25 -10 118 5 140 23 19 15 23 4 11 -34 -5 -19 -13 -80 -16 -136 l-6 -103
-39 -35 c-21 -20 -42 -33 -47 -30 -5 3 -13 0 -17 -6 -4 -8 -3 -9 4 -5 24 14
11 -5 -21 -34 -18 -15 -47 -56 -65 -91 -35 -68 -40 -58 -16 34 28 108 47 135
147 206 57 41 61 50 9 21 -96 -54 -140 -119 -178 -261 -27 -98 -29 -102 -36
-69 -15 67 8 164 50 213 8 9 10 17 4 17 -12 0 -51 -50 -69 -90 l-11 -25 -1 25
c-1 43 34 104 85 150 27 24 42 38 33 32 -9 -7 -18 -9 -21 -7 -11 11 -108 -107
-117 -143 -15 -55 -23 -270 -13 -324 9 -45 8 -47 -10 -37 -28 15 -59 90 -68
168 -7 64 -7 64 -9 16 -1 -54 21 -194 38 -238 15 -40 14 -42 -9 -16 l-21 24
16 -33 c24 -50 12 -49 -19 0 -19 30 -26 36 -22 19 9 -44 -15 -6 -29 45 -7 27
-13 40 -14 29 0 -11 8 -44 18 -73 l18 -53 -22 21 c-13 12 -34 42 -47 66 -12
24 -26 44 -30 44 -7 0 48 -101 76 -141 6 -8 -7 3 -28 25 -22 24 -34 31 -27 18
15 -28 78 -92 91 -92 6 0 10 -5 10 -10 0 -19 -74 19 -103 53 -16 17 -42 57
-58 87 -16 30 -27 44 -23 30 7 -29 69 -136 96 -167 11 -12 32 -26 47 -33 24
-10 28 -17 29 -59 0 -26 2 -52 3 -57 1 -5 1 -17 0 -27 -1 -17 -2 -17 -32 0
-64 37 -129 142 -183 292 -40 112 -69 433 -47 520 5 20 15 74 22 121 12 88 22
123 56 200 54 121 84 193 81 196 -8 7 -52 -70 -79 -138 -53 -128 -70 -191 -77
-278 -4 -63 -8 -77 -13 -55 -15 66 -8 134 22 236 17 57 32 115 34 129 2 14 11
42 20 64 28 66 10 49 -25 -25 -40 -84 -59 -101 -29 -28 24 62 50 109 60 109 4
0 22 30 39 66 26 56 32 83 40 192 9 119 22 186 40 206 5 5 5 -9 0 -30 -12 -51
-4 -56 10 -7 15 49 25 62 83 106 63 48 79 48 27 0 -43 -38 -83 -95 -44 -62 10
9 30 22 44 29 23 12 24 12 11 -4 -12 -14 -12 -16 3 -10 23 9 20 -3 -14 -46
-16 -20 -34 -57 -39 -82 -6 -25 -15 -58 -21 -73 -6 -15 -9 -30 -6 -32 2 -2 14
26 27 64 41 115 144 194 272 207 33 3 64 9 70 14 7 6 146 10 322 10 327 -1
520 11 750 43 276 38 362 48 490 53 180 8 118 -11 -81 -24 -83 -6 -194 -19
-245 -30 -114 -22 -91 -25 56 -6 197 25 420 39 517 31 100 -7 216 -42 282 -82
21 -14 45 -26 55 -28 9 -2 25 -7 35 -11 14 -5 17 -4 12 4 -4 7 -2 12 5 12 21
0 -38 40 -103 69 -35 15 -74 33 -88 39 -22 10 -20 11 15 5 53 -8 129 -38 188
-74 41 -25 45 -26 35 -8 -7 11 -35 34 -63 50 -27 16 -45 29 -40 29 6 0 26 -9
45 -21 l35 -21 -20 21 c-11 12 -52 34 -90 51 -80 34 -77 40 4 9z m299 -125
c-4 -3 -12 5 -18 18 -12 22 -12 22 6 6 10 -10 15 -20 12 -24z m-2827 -1 c-6
-10 -17 -39 -27 -65 -9 -27 -21 -48 -25 -48 -5 0 -9 -5 -9 -11 0 -5 6 -7 13
-4 6 4 4 0 -6 -9 -19 -15 -22 -42 -17 -136 2 -26 -3 -57 -12 -74 -14 -27 -15
-25 -21 68 -9 135 3 185 60 247 49 52 59 60 44 32z m2845 -155 c23 -107 25
-129 15 -173 -14 -59 -36 -99 -27 -47 3 17 1 32 -4 32 -6 0 -7 31 -3 78 5 70
-4 144 -32 262 -6 25 -6 25 10 -2 8 -15 27 -83 41 -150z m26 101 c26 -35 41
-132 35 -224 -5 -76 -22 -144 -33 -133 -2 3 0 17 6 32 14 37 13 215 -1 257
-19 56 -27 54 -13 -2 8 -30 14 -62 14 -73 0 -40 -12 -5 -29 84 -18 93 -14 106
21 59z m-2999 -134 c-2 -85 -7 -165 -12 -177 -7 -17 -9 -6 -9 42 0 36 -2 83
-6 106 -6 33 17 184 28 184 1 0 1 -70 -1 -155z m1662 -250 c103 -21 216 -82
325 -173 157 -131 220 -218 236 -322 l6 -45 -27 53 c-15 30 -31 49 -37 45 -7
-3 -8 -1 -4 5 7 12 -53 106 -62 97 -3 -3 4 -15 15 -28 11 -12 23 -29 28 -37 4
-8 -9 3 -28 25 -19 22 -33 44 -29 49 3 5 0 6 -5 3 -6 -4 -49 11 -95 33 -140
66 -206 75 -563 75 -170 0 -326 -3 -345 -7 -32 -7 -34 -7 -16 7 26 20 117 54
191 71 l60 14 -54 -6 c-67 -6 -188 -52 -261 -98 -30 -19 -79 -49 -108 -66 -95
-57 -168 -169 -182 -279 -9 -64 -9 -64 -5 23 3 85 6 96 51 184 53 103 83 135
216 229 172 123 290 160 508 162 66 0 145 -6 185 -14z m140 -270 c101 -28 220
-90 275 -141 66 -62 88 -102 26 -47 -62 55 -168 117 -241 141 -141 48 -286 56
-582 34 -190 -14 -245 -27 -346 -79 -74 -39 -112 -77 -158 -159 -33 -58 -44
-69 -29 -29 52 137 163 231 321 271 140 36 619 42 734 9z m-130 -46 c123 -14
196 -34 277 -75 67 -34 186 -130 180 -147 -1 -5 2 -6 8 -2 20 12 43 -65 35
-119 -3 -27 -9 -54 -11 -58 -3 -5 -22 8 -42 28 -86 85 -194 100 -373 50 -182
-49 -202 -70 -40 -40 160 30 254 9 374 -83 60 -47 64 -48 132 -48 71 0 97 -9
127 -42 16 -17 13 -18 -80 -20 -53 -2 -110 -7 -127 -11 -20 -6 5 -8 75 -4 115
5 171 -5 215 -40 26 -20 26 -22 9 -29 -16 -6 -15 -8 8 -8 18 -1 36 -13 57 -38
17 -20 29 -38 28 -40 -2 -1 -39 9 -82 23 -73 24 -90 26 -198 21 -159 -8 -173
-22 -24 -24 106 -1 134 -5 217 -32 67 -21 104 -39 121 -58 29 -32 65 -87 52
-81 -102 50 -211 79 -293 76 -26 0 -29 -2 -10 -5 41 -7 243 -74 266 -88 22
-14 130 -173 122 -180 -2 -3 -32 19 -66 48 -67 58 -132 93 -231 126 -85 28
-110 26 -41 -3 125 -52 251 -134 305 -198 41 -48 17 -56 -52 -18 -150 84 -266
142 -319 160 -80 28 -101 25 -31 -4 93 -39 406 -230 407 -249 0 -4 -10 -21
-22 -37 l-21 -30 -41 34 c-84 68 -276 187 -276 172 0 -3 44 -39 99 -80 98 -75
194 -172 188 -191 -2 -5 -15 -14 -29 -19 -24 -8 -39 3 -192 147 -92 87 -171
157 -177 157 -17 0 -9 -15 15 -30 51 -32 266 -312 266 -347 0 -28 -29 -11 -86
50 -75 80 -224 212 -224 199 0 -5 37 -50 83 -99 74 -79 147 -172 147 -187 0
-3 -12 -6 -27 -6 -30 0 -107 74 -209 202 -100 124 -92 92 20 -76 36 -54 63
-103 59 -109 -3 -6 -1 -7 5 -3 6 3 16 -2 21 -13 16 -29 13 -39 -4 -17 -8 11
-15 14 -15 8 0 -7 -11 -12 -25 -12 -19 0 -34 14 -66 63 -57 83 -131 178 -136
173 -3 -2 18 -53 46 -113 28 -60 51 -115 51 -121 0 -17 -16 -15 -34 3 -8 9
-20 14 -27 13 -6 -2 -46 54 -88 124 -42 70 -82 128 -88 128 -18 0 -18 1 26
-88 22 -43 43 -90 46 -105 7 -26 6 -27 -35 -27 -37 0 -47 5 -82 43 -21 23 -52
69 -68 102 -35 70 -39 63 -9 -15 27 -71 8 -53 -25 25 -14 33 -25 52 -26 42 0
-9 11 -45 25 -79 38 -94 30 -131 -15 -67 -12 16 -25 28 -27 25 -3 -3 -19 2
-34 11 -29 17 -80 104 -94 158 -4 17 -9 25 -11 20 -2 -6 2 -34 9 -63 15 -57 6
-71 -14 -19 -16 43 -24 345 -10 432 14 95 44 135 154 206 50 32 95 59 99 59
23 0 1 -24 -59 -66 -89 -62 -96 -69 -48 -50 64 27 146 79 164 106 15 21 41 94
41 114 0 16 -40 4 -57 -17 -24 -31 -105 -88 -173 -122 -30 -15 -78 -45 -107
-66 -29 -21 -55 -39 -58 -39 -4 0 -27 14 -53 32 -26 18 -87 49 -135 70 -110
48 -159 78 -187 117 -12 17 -28 31 -36 31 -11 0 -9 -10 10 -47 32 -63 45 -74
149 -122 121 -56 145 -75 176 -140 25 -55 26 -60 26 -261 -1 -191 -2 -208 -23
-251 -12 -25 -33 -51 -47 -57 -23 -10 -25 -9 -25 11 0 12 7 44 15 71 17 57 19
93 3 56 -68 -154 -88 -189 -122 -215 -55 -42 -62 -24 -28 78 40 122 31 116
-68 -47 -55 -89 -88 -123 -114 -113 -12 5 -12 12 0 54 8 26 28 77 44 112 17
35 28 66 26 68 -5 5 -86 -110 -127 -179 -19 -32 -36 -47 -62 -55 -33 -10 -37
-9 -37 7 0 26 60 180 83 213 35 51 10 39 -44 -22 -30 -32 -70 -89 -89 -125
-23 -43 -41 -66 -52 -66 -10 0 -18 5 -18 11 0 5 -5 7 -11 3 -7 -4 -9 0 -6 12
3 11 9 35 12 54 10 50 38 101 91 165 25 31 44 59 41 61 -2 2 -70 -64 -151
-147 -111 -113 -153 -149 -168 -147 -34 5 -31 21 17 84 25 32 64 84 86 114 22
30 68 81 102 114 34 32 55 54 47 50 -62 -32 -144 -101 -229 -190 -92 -98 -101
-104 -120 -92 -31 19 -26 39 27 99 54 61 242 247 263 260 9 6 10 9 2 9 -38 0
-217 -134 -305 -229 -36 -39 -70 -71 -76 -71 -11 0 -22 24 -22 49 0 17 110
129 220 224 l55 48 -65 -33 c-35 -18 -69 -38 -75 -44 -5 -6 -28 -24 -50 -40
-22 -15 -55 -41 -73 -56 -38 -33 -57 -37 -43 -10 38 71 174 184 306 254 79 43
80 44 4 22 -67 -20 -176 -74 -251 -125 -31 -22 -62 -39 -69 -39 -14 0 -3 52
14 62 7 4 12 13 12 20 0 12 21 26 157 97 62 33 76 47 60 63 -12 12 -52 1 -52
-15 0 -14 -109 -77 -133 -77 -42 0 35 95 108 133 47 24 226 77 264 78 31 1 76
17 49 18 -58 3 -284 -61 -334 -94 -36 -24 -47 -18 -28 14 24 40 171 124 294
167 36 13 55 23 43 23 -31 1 -144 -43 -233 -90 -66 -35 -71 -37 -45 -13 17 15
29 31 28 35 -3 9 111 109 162 141 30 19 55 26 99 27 68 2 87 10 136 57 78 74
205 98 350 65 47 -10 86 -18 88 -16 7 7 -108 48 -172 62 -126 26 -273 1 -342
-59 -44 -39 -58 -28 -57 42 1 64 38 141 95 199 75 75 166 110 348 130 178 21
328 24 445 10z m584 -240 c6 -41 6 -78 2 -82 -5 -5 -9 13 -9 40 -1 26 -4 66
-8 88 -3 22 -3 37 0 34 3 -3 10 -39 15 -80z m171 -7 c84 -66 132 -117 156
-167 13 -27 19 -42 12 -32 -33 47 -37 49 -19 7 13 -30 21 -79 25 -145 4 -86 4
-91 -4 -40 -14 91 -19 107 -32 99 -7 -5 -9 1 -5 17 3 13 2 31 -4 39 -8 12 -9
10 -4 -7 10 -37 -2 -26 -35 32 -39 68 -49 72 -16 8 20 -41 40 -102 62 -188 4
-16 3 -17 -5 -5 -9 13 -11 13 -11 1 0 -11 -4 -9 -15 5 -8 10 -15 23 -15 28 0
6 7 1 15 -10 11 -14 14 -15 14 -4 -1 22 -17 59 -18 40 -1 -9 -7 -6 -18 10 -21
31 -34 40 -47 33 -5 -3 -6 -1 -2 6 11 17 -12 41 -31 34 -13 -5 -15 -2 -10 11
4 11 3 15 -4 10 -6 -3 -33 15 -60 42 -51 50 -61 52 -31 6 l17 -27 -25 16 c-25
16 -37 56 -26 85 4 11 18 6 58 -23 29 -20 64 -46 78 -57 14 -12 9 -4 -10 17
-19 21 -50 48 -68 59 -31 19 -33 23 -26 57 4 20 7 53 5 75 l-2 39 28 -18 c15
-10 48 -34 73 -53z m868 -192 c17 -47 43 -128 58 -180 26 -95 44 -132 44 -94
0 18 -25 175 -35 219 -13 56 38 -78 54 -144 47 -187 45 -237 -14 -431 -51
-168 -67 -204 -128 -295 -43 -63 -115 -145 -127 -145 -4 0 4 39 16 87 13 47
26 114 29 147 l5 61 -14 -70 c-21 -108 -46 -195 -66 -234 -18 -36 -86 -108
-94 -100 -2 2 -20 39 -40 82 l-36 79 81 81 c93 94 168 201 199 284 12 32 33
135 47 228 24 167 24 172 9 295 -9 69 -23 152 -31 185 -9 33 -18 69 -21 80
-10 40 34 -53 64 -135z m-2652 64 c15 -39 15 -47 3 -55 -8 -5 -20 -9 -27 -9
-8 0 -10 -5 -6 -12 5 -8 2 -9 -9 -5 -12 4 -17 1 -17 -10 0 -9 -3 -14 -6 -10
-3 3 -19 -10 -36 -29 -16 -19 -34 -31 -39 -28 -5 3 -13 -6 -19 -20 -12 -32
-24 -34 -15 -3 3 14 -2 9 -15 -13 -32 -54 -16 0 25 86 32 65 109 154 134 154
5 0 17 -21 27 -46z m-947 -149 c-37 -222 -38 -308 -3 -386 15 -33 29 -58 31
-55 2 2 -6 24 -18 48 -30 56 -30 130 0 228 41 135 73 231 76 228 2 -2 -4 -32
-12 -68 -8 -38 -17 -148 -20 -268 -4 -134 -9 -199 -15 -190 -7 9 -8 7 -2 -7 4
-11 15 -59 25 -107 28 -134 78 -275 121 -339 22 -32 68 -84 104 -115 42 -38
61 -60 55 -68 -5 -6 -19 -42 -31 -79 -13 -37 -26 -70 -30 -72 -15 -10 -130 76
-170 126 -52 66 -86 133 -139 279 -23 63 -49 129 -56 145 -7 17 -26 77 -40
135 -36 142 -38 294 -6 428 13 51 25 91 27 89 3 -2 -7 -58 -21 -123 -36 -169
-30 -170 18 -4 24 80 50 156 59 170 9 14 26 57 38 95 43 133 44 118 9 -90z
m3511 38 c12 -38 28 -117 35 -178 l13 -110 2 100 3 100 8 -65 c8 -64 6 -90
-26 -294 -17 -109 -53 -204 -109 -289 -45 -67 -173 -207 -189 -207 -7 0 -29
32 -50 71 l-37 72 25 31 c14 17 48 58 76 91 102 121 177 276 205 424 8 42 15
131 16 199 1 67 2 122 4 122 2 0 13 -30 24 -67z m-2833 -125 c-3 -8 -6 -5 -6
6 -1 11 2 17 5 13 3 -3 4 -12 1 -19z m-564 -161 c14 -159 91 -301 254 -464
l81 -82 -49 -128 c-27 -72 -53 -127 -60 -125 -39 10 -135 115 -173 189 -79
156 -123 427 -97 593 21 132 23 138 31 115 4 -11 10 -55 13 -98z m3700 -317
c0 -138 -13 -208 -63 -339 -33 -86 -111 -222 -157 -274 -40 -46 -151 -147
-161 -147 -8 0 -17 21 -72 161 l-18 46 105 104 c151 149 209 241 272 435 28
84 54 172 58 196 l7 43 14 -50 c9 -32 15 -96 15 -175z m-3293 158 c0 -6 -7 -5
-15 2 -8 7 -15 17 -15 22 0 6 7 5 15 -2 8 -7 15 -17 15 -22z m-621 -296 c5
-10 30 -73 54 -142 60 -164 89 -225 135 -282 37 -47 126 -121 170 -141 13 -6
22 -19 22 -34 0 -21 -89 -204 -123 -253 l-15 -22 -13 24 c-6 12 -43 72 -81
131 -100 156 -222 411 -252 527 l-25 95 27 -35 c15 -19 58 -66 96 -105 68 -69
68 -69 13 -8 -30 35 -58 72 -62 83 -3 11 -12 20 -19 20 -14 0 -40 50 -50 98
-12 50 -1 38 24 -28 13 -34 25 -59 27 -56 3 2 -9 37 -26 77 -38 91 -39 136 -4
230 l26 72 34 -117 c18 -64 37 -125 42 -134z m-161 31 c-1 -141 48 -298 165
-529 42 -82 110 -201 152 -264 61 -94 74 -120 69 -142 -4 -19 -1 -28 7 -28 8
0 6 -7 -5 -19 -24 -27 -17 -55 16 -59 37 -4 83 17 160 76 67 50 67 50 81 29
37 -55 166 -172 257 -232 228 -150 399 -235 570 -283 311 -87 433 -106 700
-106 210 0 218 0 345 33 209 53 500 167 648 255 92 54 281 194 351 260 l49 46
70 -66 c69 -66 150 -124 172 -124 7 0 17 12 24 26 10 23 3 51 -59 233 l-70
207 108 109 c80 81 124 136 165 205 73 122 125 252 136 337 6 48 9 57 10 30 1
-26 5 -36 12 -31 14 8 3 -64 -11 -81 -10 -12 -26 -104 -18 -95 3 3 20 57 39
120 l34 115 7 -63 c4 -35 12 -70 19 -78 22 -26 -2 -239 -36 -329 -19 -47 9 -2
31 52 24 60 33 45 10 -17 -27 -70 -27 -74 1 -25 26 47 28 49 31 23 2 -15 -6
-62 -17 -103 -12 -41 -21 -104 -21 -139 0 -57 -4 -69 -41 -127 -51 -79 -92
-129 -236 -289 -151 -168 -283 -277 -455 -378 -43 -24 -78 -47 -78 -49 0 -2
35 14 78 37 187 100 372 257 552 469 210 248 258 339 276 523 4 38 8 67 11 65
10 -10 35 -244 38 -352 4 -132 -10 -219 -50 -317 -29 -70 -24 -76 8 -10 27 53
53 128 67 193 9 44 9 44 5 -12 -11 -128 -89 -336 -195 -514 -111 -189 -262
-354 -490 -537 -280 -223 -434 -328 -645 -438 -55 -29 -102 -54 -105 -57 -15
-14 122 47 228 102 153 80 255 148 497 331 300 227 332 254 475 391 74 71 161
148 192 171 l57 42 5 -28 c14 -75 28 -260 23 -311 -8 -69 -44 -154 -138 -318
-122 -213 -242 -359 -469 -571 -150 -140 -174 -158 -492 -355 -143 -89 -329
-182 -403 -202 -51 -14 -129 -16 -544 -16 -466 1 -695 10 -811 32 -77 15 -314
77 -382 100 -69 23 -251 100 -333 141 -245 123 -463 314 -618 541 -60 87 -127
205 -127 223 0 3 42 -34 93 -83 85 -81 227 -185 447 -326 161 -104 474 -238
610 -261 43 -7 30 -2 -127 48 -226 73 -460 202 -687 379 -267 207 -464 431
-586 664 -24 46 -45 82 -47 80 -10 -10 108 -247 165 -332 37 -55 80 -129 96
-165 76 -172 100 -218 143 -279 l46 -66 -72 70 c-113 110 -214 251 -286 399
-73 151 -125 327 -125 424 0 34 -4 62 -9 62 -15 0 -34 169 -28 259 2 49 1 77
-3 65 -15 -40 -22 -227 -11 -289 6 -33 15 -107 21 -165 12 -129 30 -199 80
-313 21 -48 34 -85 29 -81 -5 3 -36 43 -69 89 -41 58 -68 110 -86 166 -15 44
-32 86 -39 92 -6 7 -17 39 -24 72 -9 40 -16 54 -20 42 -4 -11 -14 15 -26 70
-34 150 -19 501 25 604 10 24 8 -67 -7 -236 -3 -38 -2 -67 1 -63 11 9 44 274
44 343 -1 86 62 325 85 325 8 0 -11 -74 -34 -135 -11 -31 -18 -59 -15 -62 3
-4 6 -2 6 4 0 6 12 37 26 69 22 49 28 56 34 39 8 -22 -5 -147 -21 -209 -14
-53 -5 -55 16 -4 l18 43 8 -45 c44 -260 340 -679 684 -966 106 -88 316 -222
483 -307 83 -43 154 -77 158 -77 5 0 -40 26 -101 58 -243 128 -418 254 -644
466 -175 164 -251 249 -342 386 -132 198 -189 348 -195 515 l-4 110 29 -110
c51 -189 76 -237 47 -90 -30 154 -38 213 -34 270 l3 60 12 -65 c10 -59 11 -50
7 90 -3 85 -1 175 3 200 l9 45 22 -95 c12 -52 27 -102 33 -110 8 -12 10 -10 5
10 -2 14 -10 54 -16 90 -6 36 -14 81 -18 100 -4 19 -5 55 -2 80 5 42 6 43 12
15 3 -16 14 -91 23 -164 15 -114 42 -234 44 -194 1 6 -3 22 -8 35 -18 49 -34
349 -23 433 12 86 32 185 37 185 2 0 3 -39 3 -87z m892 83 c0 -3 -4 -8 -10
-11 -5 -3 -10 -1 -10 4 0 6 5 11 10 11 6 0 10 -2 10 -4z m-20 -248 c0 -10 -4
-18 -8 -18 -5 0 -9 -6 -9 -14 0 -8 -30 -77 -67 -153 -105 -214 -120 -242 -127
-237 -4 2 -10 -8 -13 -24 -7 -29 -46 -95 -46 -77 0 41 88 283 91 250 0 -6 7
17 15 49 8 33 36 107 63 165 27 58 52 115 56 126 6 18 9 16 25 -15 11 -19 19
-43 20 -52z m2519 -62 c71 -117 169 -319 239 -491 33 -82 73 -177 87 -210 33
-74 45 -105 41 -105 -4 0 -66 100 -66 107 0 3 -16 32 -35 63 -20 32 -64 110
-98 172 -103 184 -188 329 -230 392 -22 33 -50 77 -62 99 l-22 39 20 41 20 41
28 -34 c16 -18 51 -70 78 -114z m-2106 -26 c-21 -49 -31 -60 -50 -60 -12 0
-23 5 -23 10 0 9 88 110 96 110 1 0 -9 -27 -23 -60z m1967 -8 c43 -64 93 -152
86 -152 -3 0 -19 20 -36 45 -17 25 -52 65 -77 89 -32 31 -44 49 -39 61 9 26
28 14 66 -43z m-2317 16 c8 -12 -2 -34 -40 -94 -70 -111 -103 -175 -103 -203
0 -22 4 -19 29 21 41 64 135 191 155 207 13 11 17 11 22 -3 8 -20 -116 -195
-211 -296 -38 -42 -92 -101 -119 -133 -28 -31 -53 -57 -58 -57 -4 0 -40 -34
-79 -75 -39 -41 -76 -75 -82 -75 -5 0 1 9 15 20 14 10 54 59 89 107 35 48 71
97 81 107 9 10 27 40 39 65 11 25 27 53 34 61 14 16 44 74 99 190 53 111 96
182 108 178 7 -3 16 -11 21 -20z m1250 -119 c56 -45 103 -85 105 -90 9 -23
-307 -42 -383 -23 -25 6 -23 8 32 35 32 16 69 38 83 50 27 22 10 16 -30 -11
-26 -18 -152 -71 -157 -67 -1 2 32 19 75 40 74 34 171 103 172 120 0 5 -24 -8
-52 -28 l-53 -36 48 46 c27 25 51 45 54 45 3 0 50 -37 106 -81z m399 15 c53
-91 93 -376 69 -485 -26 -114 -76 -248 -87 -236 -3 3 2 20 12 39 54 103 59
263 15 438 -31 121 -62 208 -86 244 -23 31 -18 37 22 34 29 -2 41 -10 55 -34z
m724 -56 c44 -46 92 -105 108 -133 16 -27 71 -119 123 -204 52 -84 93 -155 91
-157 -2 -2 -42 42 -89 98 -46 55 -111 133 -145 172 -108 128 -234 287 -234
296 0 6 15 10 34 10 29 0 44 -11 112 -82z m-1796 47 c0 -1 -7 -48 -16 -106
-20 -131 -20 -343 0 -479 21 -142 20 -169 -5 -100 -55 152 -80 367 -60 526 14
113 32 160 60 160 12 0 21 -1 21 -1z m87 -9 c-9 -23 -74 -265 -85 -316 l-10
-45 -1 55 c-1 71 24 239 43 285 11 25 21 35 37 35 14 0 19 -5 16 -14z m373
-11 c0 -7 -63 -45 -75 -45 -5 0 8 11 30 24 47 28 45 27 45 21z m717 -86 c6
-30 11 -108 10 -174 0 -66 -2 -104 -3 -85 -11 107 -28 221 -44 277 l-18 64 22
-14 c14 -9 25 -33 33 -68z m422 39 c21 -26 22 -32 9 -39 -8 -4 -41 -26 -74
-48 l-59 -40 -3 37 c-2 24 1 38 10 41 7 2 29 21 48 41 19 21 37 38 40 38 3 1
16 -13 29 -30z m-1938 -33 c21 -7 23 -13 11 -33 -7 -10 -22 -10 -80 0 -40 7
-72 15 -72 19 0 17 44 60 56 55 8 -3 14 -1 14 4 0 5 12 -2 26 -15 14 -13 35
-27 45 -30z m3074 -153 c-10 -34 -21 -65 -26 -68 -14 -8 -11 55 5 116 8 30 18
75 22 100 l9 45 3 -65 c2 -39 -3 -90 -13 -128z m-3082 93 c14 -6 17 -20 17
-92 0 -124 45 -258 115 -342 15 -17 22 -31 17 -31 -5 0 -16 7 -23 16 -8 9 -47
41 -89 72 -41 30 -121 100 -177 155 -57 56 -103 96 -103 91 0 -22 332 -327
428 -393 4 -3 39 -44 77 -91 37 -47 75 -93 84 -104 15 -18 15 -18 -9 -11 -74
22 -178 70 -271 125 -57 34 -129 73 -158 86 -30 14 -71 37 -90 51 l-36 26 25
-27 c14 -16 52 -42 85 -58 33 -17 98 -54 145 -83 121 -74 144 -85 250 -120 91
-31 97 -34 138 -89 40 -51 73 -70 85 -48 3 4 0 35 -6 70 -5 34 -7 65 -4 68 3
3 50 -2 104 -12 158 -29 689 -23 808 9 157 43 369 143 475 226 25 19 67 60 94
91 46 54 52 58 115 69 36 7 87 22 113 35 l47 23 68 -75 67 -75 -40 -34 c-97
-84 -279 -215 -372 -268 -120 -67 -394 -184 -517 -220 -188 -54 -235 -60 -470
-59 -235 1 -303 9 -515 56 -272 60 -439 135 -719 321 -120 80 -176 129 -237
207 l-44 55 100 97 c56 54 106 98 113 98 28 0 105 -95 122 -150 22 -71 48
-114 83 -136 26 -17 27 -17 11 2 -30 34 -76 118 -93 171 -11 32 -32 66 -57 90
-21 21 -39 43 -39 49 0 11 40 68 106 150 l33 42 63 -13 c35 -8 71 -17 81 -20z
m2032 -15 l36 -50 -27 -37 c-15 -21 -70 -81 -123 -134 -53 -53 -119 -123 -148
-155 l-52 -59 33 65 c43 83 57 133 65 245 l6 89 75 43 c41 23 80 42 87 43 6 0
28 -22 48 -50z m-3445 -30 c0 -5 -5 -10 -11 -10 -5 0 -7 5 -4 10 3 6 8 10 11
10 2 0 4 -4 4 -10z m3525 -68 c64 -72 125 -156 118 -163 -25 -21 -174 -59
-238 -59 -39 0 -90 -5 -114 -11 -24 -5 -46 -7 -49 -4 -3 3 19 27 48 53 83 72
155 149 176 187 10 19 20 35 21 35 2 0 19 -17 38 -38z m-963 -55 c-44 -52
-219 -96 -326 -82 -55 7 -206 62 -206 75 0 15 57 18 173 8 85 -7 139 -7 194 1
42 6 78 9 81 7 2 -3 -28 -15 -67 -27 -40 -11 -70 -23 -68 -25 8 -8 177 34 200
49 25 17 35 14 19 -6z m108 -57 c0 -22 -50 -52 -120 -69 -25 -7 -54 -16 -65
-22 -32 -15 -181 -26 -252 -17 -90 11 -192 37 -231 59 -38 22 -42 23 -42 10 0
-5 17 -16 38 -25 35 -16 17 -17 -20 -1 -11 4 -18 3 -18 -4 0 -13 9 -17 60 -25
25 -4 31 -3 20 4 -22 14 2 12 52 -4 115 -39 275 -44 433 -15 67 12 139 45 130
59 -4 6 -2 10 4 10 17 0 31 -37 31 -83 l0 -45 -67 -11 c-38 -6 -90 -13 -118
-15 -27 -2 3 -3 68 -2 l117 2 0 -50 c0 -28 -4 -56 -8 -62 -13 -21 -71 -44
-159 -65 -97 -23 -178 -27 -328 -17 -72 5 -91 4 -70 -3 17 -5 91 -13 166 -16
144 -6 220 5 332 48 26 11 50 19 52 19 9 0 5 -64 -5 -102 -6 -21 -19 -42 -28
-47 -29 -15 -227 -41 -317 -41 -91 0 -191 11 -329 37 l-89 16 6 141 c3 78 8
148 12 157 4 10 15 15 33 13 15 -2 19 -1 9 2 -9 3 -15 10 -12 15 4 5 -1 9 -11
9 -12 0 -15 6 -10 23 3 12 11 46 17 75 7 28 16 52 20 52 4 0 49 -14 101 -31
51 -17 125 -33 163 -36 99 -7 293 20 358 51 64 30 77 31 77 6z m2094 -100 c35
-67 84 -221 97 -303 14 -92 5 -382 -14 -457 -17 -63 -46 -140 -59 -155 -12
-13 -11 -4 12 113 11 56 20 113 20 125 -1 21 -1 21 -14 -3 -15 -27 -46 -167
-46 -209 -1 -51 -81 -233 -96 -218 -3 3 8 35 23 73 23 57 28 83 28 154 -1 56
-7 99 -17 125 -13 29 -17 72 -18 160 l0 120 -23 -40 c-13 -22 -51 -61 -87 -88
-36 -26 -110 -92 -165 -146 -101 -98 -197 -181 -210 -181 -4 0 40 50 98 110
114 118 179 214 270 396 68 135 116 270 126 349 l7 60 21 -41 c12 -22 31 -67
42 -100 11 -32 30 -86 42 -119 16 -45 23 -95 29 -205 7 -146 14 -102 10 70 -2
124 -35 248 -111 424 -21 49 -39 94 -39 100 1 13 41 -49 74 -114z m-1334 -28
c0 -4 -37 -44 -82 -89 -89 -87 -169 -139 -310 -197 -46 -19 -100 -42 -120 -50
-51 -22 -48 -14 10 23 69 44 206 186 197 202 -5 8 -5 11 0 7 5 -5 32 14 60 41
34 32 64 52 86 55 93 15 159 19 159 8z m-3747 -679 c-4 -10 -17 -34 -30 -53
-29 -44 -30 -59 0 -34 12 10 6 1 -14 -21 -45 -49 -78 -103 -108 -175 -32 -75
-45 -86 -25 -20 22 73 77 181 131 258 46 64 57 75 46 45z m5324 -15 c32 -36
103 -145 123 -191 31 -67 23 -76 -13 -16 -18 30 -56 82 -84 117 -62 77 -85
155 -26 90z m-11 -70 c10 -12 13 -18 7 -14 -19 11 -16 -9 4 -25 11 -10 14 -10
9 -1 -11 18 -1 15 15 -5 10 -11 10 -14 2 -9 -7 4 -13 3 -13 -2 0 -14 26 -33
34 -25 4 4 4 -1 0 -11 -5 -13 -4 -17 4 -12 6 3 14 1 18 -5 4 -8 3 -9 -4 -5
-18 11 -15 4 33 -80 46 -81 79 -169 89 -239 4 -30 -13 -1 -73 120 -44 88 -92
171 -107 185 -23 21 -21 16 9 -24 20 -27 38 -53 38 -57 3 -18 6 -26 41 -99 87
-180 131 -307 63 -181 -33 61 -137 205 -157 217 -6 4 15 -26 45 -66 48 -63 95
-162 124 -260 4 -13 4 -13 -6 0 -16 23 -14 -4 4 -47 28 -68 14 -48 -39 55 -30
57 -59 109 -66 115 -7 7 -1 -9 14 -35 26 -44 62 -140 90 -238 7 -25 16 -56 21
-70 17 -57 -14 -1 -34 61 -27 83 -93 190 -156 254 -41 42 -43 43 -17 10 62
-76 83 -112 142 -245 65 -144 81 -199 24 -82 -40 82 -62 97 -33 23 10 -27 20
-60 23 -73 2 -13 9 -36 15 -51 7 -17 7 -26 1 -22 -6 3 -10 10 -10 15 0 22 -83
180 -92 174 -7 -4 -6 -9 1 -13 11 -7 84 -171 76 -171 -2 0 -25 36 -51 81 -25
44 -48 78 -50 76 -2 -2 16 -45 41 -96 25 -50 45 -97 46 -104 0 -7 4 -3 9 8 6
16 8 13 8 -15 -1 -19 2 -46 6 -60 4 -14 -14 17 -40 67 -26 51 -49 91 -51 89
-3 -2 3 -18 11 -35 20 -38 21 -51 1 -25 -26 35 -16 4 25 -73 22 -42 40 -86 40
-97 0 -11 -18 15 -40 59 -22 44 -40 75 -40 70 0 -5 -15 13 -34 40 -19 28 -44
56 -57 64 -22 13 -23 13 -10 -3 8 -9 11 -19 8 -23 -4 -3 13 -29 36 -57 l42
-51 -65 58 c-117 104 -236 141 -457 142 -73 0 -133 2 -133 5 0 5 78 82 367
360 84 80 106 109 145 185 47 93 78 194 78 258 0 20 2 37 3 37 2 0 12 -10 23
-22z m-5300 -70 c-3 -13 -25 -47 -49 -76 -35 -43 -94 -152 -82 -152 2 0 24 35
50 78 25 42 55 88 65 102 l20 25 0 -24 c0 -13 -10 -40 -22 -59 l-22 -36 36 22
c19 12 38 22 41 22 9 0 18 -53 10 -59 -4 -3 -17 -17 -28 -31 l-20 -25 26 23
c14 12 30 22 35 22 5 0 25 -26 44 -57 115 -197 167 -268 254 -350 102 -95 131
-118 217 -163 l71 -37 -93 5 c-109 5 -213 -9 -313 -42 -39 -14 -72 -23 -74
-21 -2 1 12 12 30 24 18 11 27 21 20 21 -16 0 -64 -36 -60 -45 3 -6 -91 -65
-105 -65 -5 0 -5 10 -1 23 9 31 -2 18 -26 -29 -14 -28 -19 -33 -20 -19 -1 14
-8 6 -25 -25 -13 -25 -24 -38 -25 -30 0 13 -1 13 -10 0 -28 -44 18 86 65 183
20 42 35 82 32 89 -2 7 -8 0 -12 -17 -7 -27 -62 -125 -71 -125 -2 0 1 12 7 26
18 48 2 36 -25 -17 -14 -29 -26 -50 -26 -47 0 15 39 161 45 166 3 3 14 1 25
-6 12 -7 21 -8 25 -2 3 6 2 10 -4 10 -7 0 -7 8 -1 26 15 37 12 40 -11 15 -12
-12 -23 -20 -26 -17 -8 8 17 66 44 103 32 44 29 49 -8 11 -29 -31 -30 -32 -25
-9 5 24 5 24 -14 5 -10 -10 -32 -44 -48 -74 l-29 -55 -10 35 c-8 22 -8 40 -2
50 8 12 9 11 8 -5 -4 -53 13 -58 26 -8 3 16 18 45 31 66 14 22 23 46 20 54 -4
9 -2 21 2 27 5 6 12 19 15 29 12 33 -14 6 -54 -56 -42 -65 -46 -64 -25 6 8 26
10 44 5 41 -5 -3 -9 -13 -9 -22 0 -14 -2 -14 -9 -3 -10 15 19 112 41 139 11
12 11 16 0 19 -6 3 -9 10 -6 16 4 7 -1 4 -11 -5 -10 -9 -35 -52 -56 -95 -33
-69 -38 -74 -38 -46 -1 17 4 44 10 60 14 37 92 155 137 206 l36 42 -38 -35
c-21 -19 -56 -62 -77 -94 -22 -33 -39 -53 -39 -46 0 9 -7 7 -22 -6 -15 -14
-20 -15 -16 -4 3 8 20 62 38 120 18 58 39 117 46 131 15 29 107 130 113 124 2
-2 1 -14 -3 -27z m-155 -519 c-15 -33 -20 -38 -20 -21 -1 26 30 93 36 76 2 -6
-5 -31 -16 -55z m22 -72 c-7 -32 -11 -63 -7 -68 3 -5 0 -9 -5 -9 -6 0 -11 15
-11 33 0 24 -3 28 -10 17 -16 -25 -11 1 12 62 28 72 41 50 21 -35z m61 19
c-38 -47 -44 -37 -9 16 16 24 30 37 32 31 3 -7 -8 -28 -23 -47z m43 -50 c-3
-8 -11 -34 -17 -57 -6 -23 -22 -52 -36 -66 -13 -13 -24 -30 -24 -37 0 -7 -3
-16 -7 -20 -4 -3 -8 -15 -10 -24 -1 -10 -7 -29 -12 -43 -9 -22 -10 -22 -10 -3
-2 50 88 264 110 264 6 0 9 -6 6 -14z m-100 -88 c-3 -8 -6 -5 -6 6 -1 11 2 17
5 13 3 -3 4 -12 1 -19z m-67 -125 c-11 -17 -11 -17 -6 0 3 10 6 24 7 30 0 9 2
9 5 0 3 -7 0 -20 -6 -30z m894 -45 l90 -11 -50 -13 c-27 -7 -85 -18 -129 -24
-251 -35 -475 -125 -597 -241 -21 -20 -38 -34 -38 -33 0 12 76 120 104 148 70
69 219 143 346 170 82 18 159 19 274 4z m4230 -3 c174 -37 355 -163 417 -291
28 -59 60 -187 50 -197 -5 -5 -17 15 -26 45 -37 113 -71 155 -179 223 -171
109 -314 151 -581 173 l-90 8 35 18 c66 36 255 46 374 21z m-4163 -76 c21 -7
36 -15 34 -20 -3 -4 3 -5 14 -2 37 9 131 -63 115 -88 -3 -5 -2 -8 3 -7 4 2 9
0 11 -4 1 -5 11 -17 22 -28 24 -24 82 -137 86 -167 1 -11 5 -32 9 -45 3 -12
-5 -2 -19 25 -14 26 -23 55 -20 65 5 13 4 14 -4 3 -6 -8 -12 -9 -16 -3 -3 6
-1 12 6 14 8 3 -1 18 -22 40 -42 42 -70 58 -103 58 -29 0 -127 -39 -127 -51 0
-4 13 -1 29 7 41 21 90 23 136 6 49 -18 74 -38 74 -60 0 -34 10 -68 30 -107
39 -74 21 -129 -42 -127 -75 3 -117 47 -117 123 0 29 -13 38 -25 19 -10 -16
-25 -12 -18 6 3 9 -4 24 -17 36 -12 11 -28 35 -36 52 -26 59 -14 11 17 -68 16
-43 28 -80 26 -83 -3 -2 -17 27 -32 66 -30 78 -87 150 -140 175 -54 26 -71 11
-80 -71 -3 -37 -11 -85 -17 -105 -9 -32 -14 -36 -29 -27 -15 8 -18 6 -13 -8 2
-10 0 -9 -7 4 -6 12 -18 24 -26 27 -8 3 -11 1 -8 -4 3 -6 1 -10 -4 -10 -6 0
-11 8 -11 18 0 12 -3 13 -8 5 -6 -9 -20 -2 -49 25 -41 38 -97 62 -147 62 -31
0 -58 -25 -85 -78 -11 -21 -32 -47 -47 -57 -27 -17 -27 -17 -21 5 5 19 2 18
-22 -9 -15 -17 -31 -31 -34 -31 -19 0 -5 93 23 146 28 55 28 57 5 29 -42 -51
-58 -93 -52 -144 5 -45 5 -45 -10 -18 -8 15 -15 53 -16 84 -2 54 -1 56 49 102
109 99 266 165 487 205 154 28 196 30 248 15z m4058 -19 c108 -22 257 -77 317
-117 23 -16 65 -50 94 -77 39 -37 49 -51 38 -57 -10 -7 -9 -9 4 -9 22 0 35
-25 44 -80 5 -29 4 -41 -3 -37 -24 15 -21 -25 2 -45 69 -60 -25 -109 -106 -55
-41 27 -59 60 -59 108 0 40 11 59 59 94 29 20 31 25 17 31 -12 5 -29 -5 -55
-30 -20 -20 -44 -36 -53 -36 -9 0 -20 -5 -24 -11 -3 -6 -17 -9 -30 -6 -18 3
-25 -2 -33 -24 -5 -16 -14 -29 -19 -29 -5 0 -21 23 -36 51 -35 63 -59 73 -126
53 -38 -11 -56 -23 -70 -47 l-19 -31 -11 29 c-13 37 -62 137 -55 111 3 -11
-22 7 -60 42 -70 66 -105 79 -177 68 -56 -9 -91 -31 -122 -79 -14 -23 -26 -38
-26 -34 0 17 35 75 79 130 46 59 81 84 136 98 58 14 200 9 294 -11z m1009
-290 c28 -23 52 -46 52 -51 0 -24 -192 85 -263 150 -61 55 -77 83 -70 124 l5
35 112 -108 c61 -60 135 -127 164 -150z m-6046 85 c-15 -10 -141 -115 -176
-147 -10 -9 -43 -27 -72 -39 -30 -12 -53 -24 -50 -26 11 -11 157 71 225 127
41 33 79 60 86 60 13 0 39 -59 30 -68 -2 -3 -11 1 -19 7 -12 10 -26 1 -82 -56
-37 -37 -60 -59 -52 -48 33 45 30 48 -13 13 -25 -21 -63 -45 -85 -54 -21 -9
-57 -24 -79 -34 -115 -52 -243 -78 -233 -47 3 6 35 30 72 52 37 22 78 55 92
73 14 17 31 32 37 32 32 1 212 180 260 258 l20 33 27 -63 c24 -55 25 -64 12
-73z m1368 50 c19 -19 32 -35 29 -35 -3 0 -20 16 -39 35 -19 19 -32 35 -29 35
3 0 20 -16 39 -35z m3406 9 c51 -24 150 -137 168 -191 24 -69 21 -109 -6 -117
-30 -7 -97 -8 -135 0 l-30 6 5 139 c3 82 1 139 -4 139 -6 0 -18 -15 -29 -32
-14 -25 -19 -53 -20 -123 -1 -124 -24 -155 -125 -171 -27 -4 -40 -3 -40 5 0 6
6 11 13 11 36 1 38 17 7 76 -27 50 -31 66 -25 104 8 53 47 125 77 141 58 31
98 35 144 13z m1163 -140 c52 -29 131 -66 175 -80 45 -15 76 -29 69 -31 -7 -3
-21 0 -32 6 -33 18 -45 12 -18 -9 14 -11 36 -20 49 -20 22 0 55 -29 112 -97
19 -23 13 -51 -7 -35 -7 5 -50 22 -97 37 -143 47 -311 141 -405 227 -31 28
-59 47 -63 43 -11 -11 105 -112 193 -167 78 -49 79 -50 40 -45 -52 6 -185 87
-230 139 -32 38 -33 43 -21 67 8 14 22 45 31 68 l17 42 47 -46 c25 -24 88 -69
140 -99z m-5079 106 c29 -15 101 -126 106 -163 10 -63 -39 -107 -118 -107 -20
0 -19 4 19 60 14 20 10 19 -18 -7 -19 -18 -40 -33 -47 -33 -31 0 -25 127 9
161 17 17 23 43 22 87 -1 15 3 15 27 2z m633 -63 c32 -21 93 -55 135 -74 81
-37 383 -129 517 -158 166 -36 154 -33 120 -34 -74 -2 -505 97 -615 142 -89
36 -121 57 -189 120 -78 73 -71 74 32 4z m2787 -38 c-73 -65 -186 -128 -313
-176 -130 -48 -182 -55 -71 -9 114 48 298 144 355 186 70 51 87 50 29 -1z
m-3754 12 c44 -20 94 -76 94 -105 0 -29 -27 -70 -74 -114 -74 -69 -113 -52
-103 45 7 71 47 125 98 133 33 5 33 6 -15 13 -27 4 -62 7 -77 7 -33 0 -38 14
-11 29 24 15 41 13 88 -8z m4006 -56 c3 -40 2 -61 -3 -50 -7 19 -13 132 -5
124 2 -2 6 -35 8 -74z m629 -5 c25 -33 35 -135 19 -184 -7 -22 -22 -42 -40
-51 -27 -14 -29 -13 -79 37 -28 28 -54 62 -57 75 -10 40 5 91 38 123 39 39 91
39 119 0z m-5140 -13 c-10 -9 -11 -8 -5 6 3 10 9 15 12 12 3 -3 0 -11 -7 -18z
m5330 -39 c-3 -49 -5 -51 -13 -25 -6 15 -7 39 -4 52 11 44 21 27 17 -27z
m-5161 -149 c-31 -9 -156 -11 -147 -3 3 4 30 14 59 24 48 16 56 16 83 2 l30
-16 -25 -7z m4015 23 c-23 -21 -101 -42 -168 -47 -60 -4 -65 -3 -27 4 25 5 77
18 115 29 80 24 93 26 80 14z m-3955 -37 c16 -8 46 -19 67 -24 29 -7 9 -9 -87
-10 -84 0 -120 2 -110 9 8 5 38 10 65 11 36 2 41 3 20 7 -26 4 -28 5 -10 12
11 5 21 9 23 9 2 1 16 -6 32 -14z m5900 5 c8 -5 11 -10 5 -10 -5 0 -17 5 -25
10 -8 5 -10 10 -5 10 6 0 17 -5 25 -10z m-350 -21 c44 -19 44 -19 10 -15 -19
3 -77 8 -127 12 -111 8 -114 24 -5 23 54 0 91 -6 122 -20z m407 5 c-3 -3 -12
-4 -19 -1 -8 3 -5 6 6 6 11 1 17 -2 13 -5z"/>
<path d="M4795 9193 c-216 -12 -684 -59 -694 -69 -8 -7 43 -4 164 11 292 35
791 59 1100 52 149 -3 184 -2 110 3 -105 7 -576 10 -680 3z"/>
<path d="M5663 9173 c26 -2 68 -2 95 0 26 2 4 3 -48 3 -52 0 -74 -1 -47 -3z"/>
<path d="M5838 9163 c12 -2 30 -2 40 0 9 3 -1 5 -23 4 -22 0 -30 -2 -17 -4z"/>
<path d="M3983 9103 c9 -2 23 -2 30 0 6 3 -1 5 -18 5 -16 0 -22 -2 -12 -5z"/>
<path d="M3880 9080 c-44 -24 -39 -24 30 0 36 13 46 19 30 19 -14 0 -41 -8
-60 -19z"/>
<path d="M4048 8983 c7 -3 16 -2 19 1 4 3 -2 6 -13 5 -11 0 -14 -3 -6 -6z"/>
<path d="M4202 8970 c-39 -21 -49 -30 -36 -30 5 0 27 11 49 25 47 28 36 33
-13 5z"/>
<path d="M3995 8950 c-3 -5 -2 -10 4 -10 5 0 13 5 16 10 3 6 2 10 -4 10 -5 0
-13 -4 -16 -10z"/>
<path d="M6041 8936 c2 -3 36 -7 74 -10 44 -3 61 -1 45 4 -26 8 -127 13 -119
6z"/>
<path d="M5985 8870 l-40 -7 35 -1 c19 0 46 4 60 8 32 10 2 10 -55 0z"/>
<path d="M4090 8809 c-26 -15 -29 -18 -10 -13 27 7 71 34 55 34 -6 -1 -26 -10
-45 -21z"/>
<path d="M5953 8783 c9 -2 25 -2 35 0 9 3 1 5 -18 5 -19 0 -27 -2 -17 -5z"/>
<path d="M6033 8733 c9 -2 23 -2 30 0 6 3 -1 5 -18 5 -16 0 -22 -2 -12 -5z"/>
<path d="M5973 8723 c9 -2 23 -2 30 0 6 3 -1 5 -18 5 -16 0 -22 -2 -12 -5z"/>
<path d="M4080 8679 c-45 -16 -151 -64 -169 -76 -2 -2 -2 -6 2 -9 3 -3 30 7
59 24 29 16 76 37 103 46 49 16 89 36 70 35 -5 0 -35 -9 -65 -20z"/>
<path d="M4006 8618 c-32 -18 -53 -34 -47 -36 6 -2 24 6 40 17 16 12 33 21 38
21 5 0 18 7 29 15 33 25 2 16 -60 -17z"/>
<path d="M4069 8613 c-12 -16 -12 -17 1 -7 8 6 22 14 30 17 13 5 12 6 -1 6 -9
1 -23 -7 -30 -16z"/>
<path d="M4025 8590 c-3 -6 1 -7 9 -4 18 7 21 14 7 14 -6 0 -13 -4 -16 -10z"/>
<path d="M4125 8520 c-3 -5 -2 -10 4 -10 5 0 13 5 16 10 3 6 2 10 -4 10 -5 0
-13 -4 -16 -10z"/>
<path d="M3990 8455 c-14 -8 -20 -14 -15 -14 6 0 21 6 35 14 14 8 21 14 15 14
-5 0 -21 -6 -35 -14z"/>
<path d="M6005 8449 c-27 -5 -66 -13 -85 -18 l-35 -10 35 4 c79 11 152 24 158
29 6 7 -7 6 -73 -5z"/>
<path d="M4168 8443 c7 -3 16 -2 19 1 4 3 -2 6 -13 5 -11 0 -14 -3 -6 -6z"/>
<path d="M4149 8403 c-13 -15 -12 -15 11 -3 34 17 36 20 18 20 -9 0 -22 -7
-29 -17z"/>
<path d="M5958 8403 c6 -2 18 -2 25 0 6 3 1 5 -13 5 -14 0 -19 -2 -12 -5z"/>
<path d="M4099 8369 l-24 -20 28 17 c15 9 27 18 27 20 0 8 -8 4 -31 -17z"/>
<path d="M4165 8380 c-3 -6 1 -7 9 -4 18 7 21 14 7 14 -6 0 -13 -4 -16 -10z"/>
<path d="M4097 8344 c-22 -14 -37 -28 -34 -30 5 -5 87 45 87 52 0 9 -17 1 -53
-22z"/>
<path d="M4265 8360 c-3 -6 1 -7 9 -4 18 7 21 14 7 14 -6 0 -13 -4 -16 -10z"/>
<path d="M5858 8353 c6 -2 18 -2 25 0 6 3 1 5 -13 5 -14 0 -19 -2 -12 -5z"/>
<path d="M5978 8353 c7 -3 16 -2 19 1 4 3 -2 6 -13 5 -11 0 -14 -3 -6 -6z"/>
<path d="M5868 8313 c6 -2 18 -2 25 0 6 3 1 5 -13 5 -14 0 -19 -2 -12 -5z"/>
<path d="M5838 8293 c12 -2 30 -2 40 0 9 3 -1 5 -23 4 -22 0 -30 -2 -17 -4z"/>
<path d="M5998 8253 c6 -2 18 -2 25 0 6 3 1 5 -13 5 -14 0 -19 -2 -12 -5z"/>
<path d="M4138 8230 c-20 -11 -40 -25 -44 -32 -6 -9 76 32 95 48 12 11 -19 1
-51 -16z"/>
<path d="M4270 8239 c0 -5 5 -7 10 -4 6 3 10 8 10 11 0 2 -4 4 -10 4 -5 0 -10
-5 -10 -11z"/>
<path d="M4240 8190 c-13 -8 -13 -10 2 -10 9 0 20 5 23 10 8 13 -5 13 -25 0z"/>
<path d="M5873 8193 c9 -2 23 -2 30 0 6 3 -1 5 -18 5 -16 0 -22 -2 -12 -5z"/>
<path d="M4281 8134 c0 -11 3 -14 6 -6 3 7 2 16 -1 19 -3 4 -6 -2 -5 -13z"/>
<path d="M4225 8066 c-23 -10 -26 -14 -13 -18 9 -4 26 1 39 13 25 22 17 24
-26 5z"/>
<path d="M4117 8044 c-3 -3 -3 -12 0 -20 3 -8 -3 -21 -13 -29 -27 -20 -6 -17
41 6 36 17 37 19 10 14 -20 -4 -25 -3 -16 4 7 5 10 14 7 20 -8 12 -19 14 -29
5z"/>
<path d="M4230 7990 c-8 -5 -10 -10 -5 -10 6 0 17 5 25 10 8 5 11 10 5 10 -5
0 -17 -5 -25 -10z"/>
<path d="M5750 7989 c0 -5 5 -7 10 -4 6 3 10 8 10 11 0 2 -4 4 -10 4 -5 0 -10
-5 -10 -11z"/>
<path d="M5913 7913 c9 -2 25 -2 35 0 9 3 1 5 -18 5 -19 0 -27 -2 -17 -5z"/>
<path d="M5858 7903 c7 -3 16 -2 19 1 4 3 -2 6 -13 5 -11 0 -14 -3 -6 -6z"/>
<path d="M5833 7831 c-50 -3 -94 -9 -98 -12 -8 -9 176 2 200 12 11 4 13 7 5 7
-8 -1 -56 -4 -107 -7z"/>
<path d="M5840 7799 c-22 -4 -4 -5 45 -2 44 3 82 7 84 9 8 7 -93 2 -129 -7z"/>
<path d="M4305 7790 c-3 -6 1 -7 9 -4 18 7 21 14 7 14 -6 0 -13 -4 -16 -10z"/>
<path d="M5728 7733 c6 -2 18 -2 25 0 6 3 1 5 -13 5 -14 0 -19 -2 -12 -5z"/>
<path d="M4253 7713 c-21 -8 -15 -22 7 -16 11 3 20 9 20 14 0 10 -8 10 -27 2z"/>
<path d="M5718 7703 c6 -2 18 -2 25 0 6 3 1 5 -13 5 -14 0 -19 -2 -12 -5z"/>
<path d="M4213 7653 c-13 -2 -23 -9 -23 -14 0 -13 13 -11 36 6 10 8 17 14 14
13 -3 0 -15 -3 -27 -5z"/>
<path d="M4345 7650 c-3 -5 -1 -10 4 -10 6 0 11 5 11 10 0 6 -2 10 -4 10 -3 0
-8 -4 -11 -10z"/>
<path d="M4218 7619 c-21 -11 -38 -22 -38 -24 0 -7 73 24 85 36 15 15 -7 10
-47 -12z"/>
<path d="M5738 7613 c12 -2 30 -2 40 0 9 3 -1 5 -23 4 -22 0 -30 -2 -17 -4z"/>
<path d="M4205 7580 c-22 -11 -29 -17 -15 -14 29 8 80 33 65 33 -5 0 -28 -8
-50 -19z"/>
<path d="M4350 7570 c-13 -8 -12 -10 3 -10 9 0 17 5 17 10 0 12 -1 12 -20 0z"/>
<path d="M4223 7553 c9 -2 23 -2 30 0 6 3 -1 5 -18 5 -16 0 -22 -2 -12 -5z"/>
<path d="M7050 7089 c-19 -16 -69 -43 -111 -59 -90 -34 -281 -89 -318 -91 -23
-2 -23 -2 -4 -6 28 -5 227 42 306 73 73 29 164 82 171 101 8 20 -6 15 -44 -18z"/>
<path d="M5715 6486 c-60 -13 -137 -31 -170 -41 -33 -10 -89 -24 -125 -31
l-65 -13 60 5 c58 5 88 11 295 56 63 14 135 21 215 22 112 1 124 -1 181 -27
64 -30 121 -80 149 -132 l16 -30 -6 35 c-9 49 -95 134 -160 159 -75 28 -247
27 -390 -3z"/>
<path d="M4255 6425 c102 -18 171 -41 233 -76 30 -16 56 -28 58 -26 8 8 -117
72 -184 95 -38 14 -84 22 -120 21 l-57 -1 70 -13z"/>
<path d="M4983 6433 c9 -2 23 -2 30 0 6 3 -1 5 -18 5 -16 0 -22 -2 -12 -5z"/>
<path d="M4588 6403 c7 -3 16 -2 19 1 4 3 -2 6 -13 5 -11 0 -14 -3 -6 -6z"/>
<path d="M6345 6354 c19 -32 35 -65 35 -73 1 -9 14 -43 30 -76 19 -40 27 -50
23 -30 -8 43 -86 207 -106 224 -9 7 -1 -13 18 -45z"/>
<path d="M5844 6375 c-143 -31 -200 -96 -158 -180 8 -16 12 -21 8 -10 -17 60
-15 70 18 108 51 58 127 80 253 75 71 -3 110 -9 135 -22 38 -20 121 -96 116
-105 -2 -3 3 -33 10 -66 l14 -60 -4 52 c-1 29 1 50 6 47 16 -10 8 12 -24 66
-26 43 -44 60 -88 82 -48 24 -66 28 -140 27 -47 0 -113 -7 -146 -14z"/>
<path d="M4040 6353 c-62 -33 -95 -80 -106 -151 -5 -33 0 -63 21 -128 21 -64
25 -88 16 -97 -8 -8 -11 -8 -11 3 0 7 -11 0 -25 -16 -28 -31 -75 -125 -75
-146 1 -7 10 10 22 37 24 56 67 119 76 111 3 -3 14 1 24 11 20 18 23 12 7 -20
-8 -17 -5 -16 15 6 20 22 26 39 26 75 1 88 55 168 122 178 50 8 124 -31 150
-80 11 -20 5 -18 -43 16 -33 25 -113 27 -156 4 -111 -57 -53 -249 76 -249 22
0 55 9 75 21 42 25 47 15 10 -21 -33 -33 -86 -51 -128 -43 -40 8 -61 30 -71
73 -12 57 -27 57 -68 -4 -34 -50 -38 -63 -40 -125 l-2 -70 44 -39 c58 -52 73
-50 16 2 -48 44 -60 78 -46 124 l9 30 1 -35 c1 -44 22 -74 69 -101 35 -19 35
-20 9 -16 -35 5 -23 -9 16 -18 15 -4 27 -3 27 2 0 6 24 15 54 22 44 10 146 61
146 74 0 2 -30 -11 -66 -30 -73 -36 -127 -42 -174 -18 -34 17 -70 61 -70 84 1
13 2 13 11 -2 6 -11 26 -25 45 -33 48 -20 55 -16 12 7 -52 27 -48 32 8 9 25
-11 57 -20 71 -20 47 0 105 24 134 55 50 53 129 179 117 187 -8 4 -6 14 5 32
34 52 15 141 -42 188 -38 32 -124 53 -177 44 -56 -11 -136 -94 -154 -161 -18
-68 -26 -73 -40 -29 -17 49 -7 149 17 183 11 14 44 39 74 54 50 26 61 28 149
24 52 -2 104 -6 115 -10 11 -4 4 0 -15 9 -22 10 -71 19 -130 21 -90 5 -98 3
-150 -24z m264 -162 c19 -17 32 -44 42 -89 3 -15 -5 -5 -19 24 -14 29 -39 60
-58 73 -29 19 -30 21 -9 15 14 -3 33 -14 44 -23z m86 -44 c0 -15 -5 -11 -20
18 -25 49 -25 57 0 26 11 -13 20 -33 20 -44z m-150 -17 c0 -5 -6 -10 -14 -10
-8 0 -21 -3 -30 -6 -9 -3 -16 -1 -16 4 0 10 19 18 48 21 6 0 12 -3 12 -9z
m107 -112 c-3 -7 -5 -2 -5 12 0 14 2 19 5 13 2 -7 2 -19 0 -25z m-275 -182
c13 -10 45 -16 78 -17 45 0 51 -2 31 -10 -24 -10 -83 -3 -113 12 -31 16 -48
40 -47 67 l1 27 14 -32 c7 -17 24 -39 36 -47z m183 14 c-3 -5 -12 -10 -18 -10
-7 0 -6 4 3 10 19 12 23 12 15 0z"/>
<path d="M5588 6313 c7 -3 16 -2 19 1 4 3 -2 6 -13 5 -11 0 -14 -3 -6 -6z"/>
<path d="M4430 6275 c12 -19 26 -48 30 -63 7 -24 8 -25 9 -4 1 12 -11 40 -25
62 -33 49 -44 53 -14 5z"/>
<path d="M5860 6293 c-37 -14 -74 -49 -90 -87 -22 -48 -37 -171 -22 -179 5 -4
12 22 15 61 5 67 32 152 47 152 4 0 -1 -17 -11 -37 -31 -61 -25 -127 20 -224
21 -46 47 -110 57 -141 33 -107 97 -158 199 -158 82 0 138 36 166 105 18 48
22 10 4 -45 -9 -28 -28 -59 -43 -70 -15 -12 -21 -20 -13 -17 8 2 29 20 45 41
29 35 31 44 31 115 0 72 -2 81 -42 146 -31 53 -39 74 -32 87 6 11 6 18 1 18
-5 0 -12 18 -16 41 -8 50 -45 110 -88 142 -60 45 -175 70 -228 50z m123 -42
c97 -26 148 -83 146 -158 0 -24 -3 -21 -17 19 -22 61 -46 86 -110 115 -45 20
-59 22 -91 13 -52 -14 -91 -58 -106 -122 -11 -45 -13 -48 -14 -20 -2 67 19
122 58 148 43 29 48 29 134 5z m76 -67 c11 -10 12 -16 3 -27 -10 -11 -20 -12
-51 -4 -47 13 -108 -4 -146 -39 -14 -13 -25 -20 -25 -16 0 17 41 72 62 83 55
30 128 31 157 3z m66 -191 c-20 -108 -61 -146 -134 -125 -21 7 -46 21 -56 32
-18 20 -18 20 23 20 23 0 42 -4 42 -9 0 -17 64 8 82 32 10 12 20 37 24 55 3
17 11 32 16 32 6 0 8 -14 3 -37z m-275 -8 c0 -5 -5 -3 -10 5 -5 8 -10 20 -10
25 0 6 5 3 10 -5 5 -8 10 -19 10 -25z m356 -83 c23 -49 11 -97 -36 -144 -33
-34 -43 -38 -86 -38 -56 1 -116 20 -146 47 -23 20 -63 101 -54 110 3 4 12 -9
20 -28 8 -19 23 -43 34 -53 42 -37 149 -30 207 16 24 19 27 26 22 62 -3 23 -9
52 -13 64 -6 22 -5 23 15 11 11 -8 28 -29 37 -47z m-243 -57 c20 -8 56 -15 79
-16 42 -1 42 -1 14 -11 -32 -12 -87 0 -121 26 -26 20 -17 20 28 1z m52 -49
c11 -3 2 -3 -19 -1 -22 2 -44 9 -50 15 -7 7 -2 8 19 1 17 -5 39 -12 50 -15z
m205 -29 c0 -2 -15 -16 -32 -33 l-33 -29 29 33 c28 30 36 37 36 29z"/>
<path d="M4872 6270 c-83 -12 -204 -46 -253 -71 -48 -24 -108 -77 -151 -133
-25 -31 -15 -25 39 27 111 105 217 147 427 168 113 11 253 7 381 -13 78 -11
167 -45 235 -90 l45 -29 -35 31 c-45 39 -121 76 -202 95 -75 19 -392 28 -486
15z"/>
<path d="M4433 6073 c-10 -34 -10 -36 3 -19 12 17 20 56 11 56 -1 0 -7 -17
-14 -37z"/>
<path d="M5780 5973 c0 -6 8 -17 18 -24 16 -13 16 -13 2 6 -8 11 -16 22 -17
24 -2 2 -3 0 -3 -6z"/>
<path d="M4555 5910 c-8 -13 5 -13 25 0 13 8 13 10 -2 10 -9 0 -20 -4 -23 -10z"/>
<path d="M6380 5820 c16 -31 24 -72 30 -149 l9 -106 -4 105 c-3 102 -19 169
-46 185 -6 4 -1 -12 11 -35z"/>
<path d="M5859 5794 c35 -72 73 -119 112 -139 48 -25 54 -16 10 15 -35 26 -83
84 -139 166 -6 11 1 -8 17 -42z"/>
<path d="M5730 5837 c0 -2 15 -16 33 -33 l32 -29 -29 33 c-28 30 -36 37 -36
29z"/>
<path d="M3851 5784 c0 -11 3 -14 6 -6 3 7 2 16 -1 19 -3 4 -6 -2 -5 -13z"/>
<path d="M5805 5750 c10 -11 20 -20 23 -20 3 0 -3 9 -13 20 -10 11 -20 20 -23
20 -3 0 3 -9 13 -20z"/>
<path d="M3646 5605 c-9 -26 -7 -32 5 -12 6 10 9 21 6 23 -2 3 -7 -2 -11 -11z"/>
<path d="M3626 5555 c-3 -9 -6 -22 -5 -28 0 -7 5 -1 10 12 5 13 8 26 5 28 -2
2 -6 -3 -10 -12z"/>
<path d="M4114 5474 c-18 -14 -18 -15 4 -4 12 6 22 13 22 15 0 8 -5 6 -26 -11z"/>
<path d="M3612 5443 c-21 -40 -52 -157 -51 -197 0 -22 2 -36 4 -31 2 6 18 61
35 123 30 107 34 147 12 105z"/>
<path d="M6321 5204 c0 -11 3 -14 6 -6 3 7 2 16 -1 19 -3 4 -6 -2 -5 -13z"/>
<path d="M3983 5185 c-3 -9 -3 -18 -1 -21 3 -3 8 4 11 16 6 23 -1 27 -10 5z"/>
<path d="M6332 5160 c0 -14 2 -19 5 -12 2 6 2 18 0 25 -3 6 -5 1 -5 -13z"/>
<path d="M3612 5145 c0 -16 2 -22 5 -12 2 9 2 23 0 30 -3 6 -5 -1 -5 -18z"/>
<path d="M3662 5025 c0 -16 2 -22 5 -12 2 9 2 23 0 30 -3 6 -5 -1 -5 -18z"/>
<path d="M3612 5005 c0 -16 2 -22 5 -12 2 9 2 23 0 30 -3 6 -5 -1 -5 -18z"/>
<path d="M6356 4883 c-6 -14 -5 -15 5 -6 7 7 10 15 7 18 -3 3 -9 -2 -12 -12z"/>
<path d="M4953 5863 c9 -2 25 -2 35 0 9 3 1 5 -18 5 -19 0 -27 -2 -17 -5z"/>
<path d="M5348 5863 c7 -3 16 -2 19 1 4 3 -2 6 -13 5 -11 0 -14 -3 -6 -6z"/>
<path d="M5480 5816 c0 -3 9 -10 20 -16 11 -6 20 -8 20 -6 0 3 -9 10 -20 16
-11 6 -20 8 -20 6z"/>
<path d="M5766 5437 c3 -10 9 -15 12 -12 3 3 0 11 -7 18 -10 9 -11 8 -5 -6z"/>
<path d="M5782 5390 c0 -14 2 -19 5 -12 2 6 2 18 0 25 -3 6 -5 1 -5 -13z"/>
<path d="M4651 5207 c-1 -23 17 -58 38 -75 20 -16 231 -155 251 -166 40 -21
-56 51 -146 109 -80 53 -105 75 -122 108 -12 25 -21 35 -21 24z"/>
<path d="M4228 5084 c-39 -21 -35 -28 5 -8 37 19 44 24 31 24 -5 -1 -21 -8
-36 -16z"/>
<path d="M4166 5045 c-11 -8 -15 -15 -9 -15 6 0 16 7 23 15 16 19 11 19 -14 0z"/>
<path d="M5638 4903 c7 -3 16 -2 19 1 4 3 -2 6 -13 5 -11 0 -14 -3 -6 -6z"/>
<path d="M4261 4880 c-54 -20 -73 -30 -54 -30 18 0 118 32 128 41 15 15 -15
10 -74 -11z"/>
<path d="M4355 4800 c-3 -5 -2 -10 4 -10 5 0 13 5 16 10 3 6 2 10 -4 10 -5 0
-13 -4 -16 -10z"/>
<path d="M4495 4740 c-3 -5 -2 -10 4 -10 5 0 13 5 16 10 3 6 2 10 -4 10 -5 0
-13 -4 -16 -10z"/>
<path d="M5650 4642 c0 -5 15 -19 33 -32 l32 -23 -29 31 c-31 34 -36 37 -36
24z"/>
<path d="M4508 4629 c-28 -16 -21 -30 7 -17 14 6 25 15 25 20 0 11 -11 10 -32
-3z"/>
<path d="M5575 4560 c3 -5 8 -10 11 -10 2 0 4 5 4 10 0 6 -5 10 -11 10 -5 0
-7 -4 -4 -10z"/>
<path d="M5590 4500 c0 -5 5 -10 11 -10 5 0 7 5 4 10 -3 6 -8 10 -11 10 -2 0
-4 -4 -4 -10z"/>
<path d="M5971 5437 c2 -2 27 -23 54 -47 l50 -44 -45 47 c-24 26 -48 47 -54
47 -5 0 -7 -1 -5 -3z"/>
<path d="M6070 5336 c0 -2 8 -10 18 -17 15 -13 16 -12 3 4 -13 16 -21 21 -21
13z"/>
<path d="M4214 5298 c-31 -34 -67 -81 -47 -63 21 20 85 95 81 95 -2 0 -18 -15
-34 -32z"/>
<path d="M4136 5195 c-3 -9 -6 -22 -5 -28 0 -7 5 -1 10 12 5 13 8 26 5 28 -2
2 -6 -3 -10 -12z"/>
<path d="M7231 4404 c0 -11 3 -14 6 -6 3 7 2 16 -1 19 -3 4 -6 -2 -5 -13z"/>
<path d="M7242 4340 c0 -14 2 -19 5 -12 2 6 2 18 0 25 -3 6 -5 1 -5 -13z"/>
<path d="M7215 3959 c-4 -6 -5 -12 -2 -15 2 -3 7 2 10 11 7 17 1 20 -8 4z"/>
<path d="M2961 3919 c-1 -41 24 -120 64 -199 54 -107 282 -420 306 -420 19 0
8 27 -22 56 -17 16 -63 72 -103 124 -144 187 -222 327 -236 423 -6 44 -8 46
-9 16z"/>
<path d="M7369 3865 c-4 -5 -10 -30 -14 -55 -10 -63 -45 -189 -62 -225 l-14
-30 20 23 c11 12 34 59 51 103 24 63 30 93 28 137 -2 32 -6 53 -9 47z"/>
<path d="M2731 3684 c0 -11 3 -14 6 -6 3 7 2 16 -1 19 -3 4 -6 -2 -5 -13z"/>
<path d="M2722 3640 c0 -14 2 -19 5 -12 2 6 2 18 0 25 -3 6 -5 1 -5 -13z"/>
<path d="M3680 3249 c49 -39 307 -158 430 -199 135 -44 422 -105 535 -114 44
-4 9 5 -95 23 -305 54 -517 121 -760 243 -74 37 -124 58 -110 47z"/>
<path d="M2895 3095 c10 -16 44 -61 75 -100 31 -38 67 -88 80 -110 43 -72 227
-291 317 -376 195 -184 478 -376 768 -521 162 -81 181 -80 27 1 -372 196 -633
381 -838 592 -108 112 -215 240 -274 328 -59 89 -198 254 -155 186z"/>
<path d="M7381 2844 c-50 -93 -398 -447 -586 -595 -44 -34 -132 -107 -196
-160 -235 -197 -431 -323 -657 -420 -67 -29 -121 -54 -119 -56 5 -5 172 64
251 104 161 80 263 151 619 430 269 212 443 372 594 548 98 114 126 156 121
181 -2 8 -14 -6 -27 -32z"/>
<path d="M7297 2585 c-31 -63 -88 -162 -127 -221 -39 -59 -69 -108 -67 -111 3
-2 24 18 47 44 32 36 37 39 19 13 -86 -130 -194 -245 -347 -369 -179 -144
-220 -172 -462 -309 -273 -154 -387 -207 -568 -267 -29 -9 -51 -19 -49 -22 7
-6 156 43 294 98 140 55 448 207 569 280 45 27 86 49 91 49 4 0 31 19 58 41
28 23 73 59 100 79 97 73 155 138 279 313 101 142 160 258 196 386 16 58 28
106 27 108 -2 1 -28 -49 -60 -112z m-463 -679 c-3 -8 -22 -27 -42 -42 l-37
-27 40 41 c43 46 47 49 39 28z"/>
<path d="M4358 1633 c7 -3 16 -2 19 1 4 3 -2 6 -13 5 -11 0 -14 -3 -6 -6z"/>
<path d="M4398 1623 c7 -3 16 -2 19 1 4 3 -2 6 -13 5 -11 0 -14 -3 -6 -6z"/>
<path d="M4438 1613 c7 -3 16 -2 19 1 4 3 -2 6 -13 5 -11 0 -14 -3 -6 -6z"/>
<path d="M4488 1603 c7 -3 16 -2 19 1 4 3 -2 6 -13 5 -11 0 -14 -3 -6 -6z"/>
<path d="M5780 1600 c-8 -5 -10 -10 -5 -10 6 0 17 5 25 10 8 5 11 10 5 10 -5
0 -17 -5 -25 -10z"/>
<path d="M5715 1575 c-25 -12 -26 -14 -5 -9 28 7 60 23 45 23 -5 0 -23 -6 -40
-14z"/>
<path d="M3737 4010 c-3 -11 -1 -20 4 -20 5 0 9 9 9 20 0 11 -2 20 -4 20 -2 0
-6 -9 -9 -20z"/>
<path d="M4995 4029 c-19 -5 -4 -6 40 -2 39 3 72 7 74 9 8 7 -84 2 -114 -7z"/>
<path d="M4808 3573 c6 -2 18 -2 25 0 6 3 1 5 -13 5 -14 0 -19 -2 -12 -5z"/>
<path d="M7820 2675 c13 -14 26 -25 28 -25 3 0 -5 11 -18 25 -13 14 -26 25
-28 25 -3 0 5 -11 18 -25z"/>
<path d="M7890 2416 c0 -2 8 -10 18 -17 15 -13 16 -12 3 4 -13 16 -21 21 -21
13z"/>
<path d="M7685 2220 c3 -5 8 -10 11 -10 2 0 4 5 4 10 0 6 -5 10 -11 10 -5 0
-7 -4 -4 -10z"/>
<path d="M7800 2151 c0 -6 4 -13 10 -16 6 -3 7 1 4 9 -7 18 -14 21 -14 7z"/>
<path d="M7750 2116 c0 -2 8 -10 18 -17 15 -13 16 -12 3 4 -13 16 -21 21 -21
13z"/>
<path d="M2519 2543 l-34 -36 43 33 c23 18 42 35 42 37 0 12 -21 -2 -51 -34z"/>
<path d="M2549 2443 c-13 -16 -12 -17 4 -4 9 7 17 15 17 17 0 8 -8 3 -21 -13z"/>
<path d="M2509 2393 c-13 -16 -12 -17 4 -4 9 7 17 15 17 17 0 8 -8 3 -21 -13z"/>
<path d="M2449 2363 c-13 -16 -12 -17 4 -4 9 7 17 15 17 17 0 8 -8 3 -21 -13z"/>
<path d="M2560 2030 c-6 -11 -8 -20 -6 -20 3 0 10 9 16 20 6 11 8 20 6 20 -3
0 -10 -9 -16 -20z"/>
<path d="M2570 2005 c-7 -9 -10 -18 -7 -21 3 -3 10 4 17 15 13 25 8 27 -10 6z"/>
<path d="M2521 1972 c-22 -31 -61 -125 -60 -145 0 -7 9 10 20 37 11 27 31 68
45 92 29 49 26 59 -5 16z"/>
<path d="M2588 1983 c-18 -21 -31 -43 -25 -43 2 0 13 14 25 30 25 33 24 41 0
13z"/>
<path d="M2540 1950 c-6 -11 -8 -20 -6 -20 3 0 10 9 16 20 6 11 8 20 6 20 -3
0 -10 -9 -16 -20z"/>
<path d="M2589 1923 c-13 -16 -12 -17 4 -4 16 13 21 21 13 21 -2 0 -10 -8 -17
-17z"/>
<path d="M2659 1583 c-13 -16 -12 -17 4 -4 9 7 17 15 17 17 0 8 -8 3 -21 -13z"/>
<path d="M3530 1541 c0 -6 4 -13 10 -16 6 -3 7 1 4 9 -7 18 -14 21 -14 7z"/>
<path d="M7288 1593 c6 -2 18 -2 25 0 6 3 1 5 -13 5 -14 0 -19 -2 -12 -5z"/>
<path d="M6880 1468 c1 -31 2 -32 15 -15 7 11 11 25 8 33 -10 25 -23 15 -23
-18z"/>
<path d="M7421 1435 c1 -11 5 -31 9 -45 8 -24 8 -24 9 5 0 17 -4 37 -9 45 -8
12 -10 11 -9 -5z"/>
<path d="M4683 1133 c20 -2 54 -2 75 0 20 2 3 4 -38 4 -41 0 -58 -2 -37 -4z"/>
<path d="M5030 1130 c-154 -5 -149 -6 90 -7 140 0 316 3 390 6 124 7 116 8
-90 7 -124 0 -299 -3 -390 -6z"/>
</g>
</svg>
